<svg xmlns="http://www.w3.org/2000/svg" xmlns:xlink="http://www.w3.org/1999/xlink" width="82" zoomAndPan="magnify" viewBox="0 0 61.5 57.749998" height="77" preserveAspectRatio="xMidYMid meet" version="1.0"><defs><clipPath id="bb2e4b3048"><path d="M 0 0.109375 L 13 0.109375 L 13 14 L 0 14 Z M 0 0.109375 " clip-rule="nonzero"/></clipPath><clipPath id="bc7b790ea0"><path d="M 48 33 L 60.738281 33 L 60.738281 51 L 48 51 Z M 48 33 " clip-rule="nonzero"/></clipPath><clipPath id="ba221d3ac3"><path d="M 17 44 L 45 44 L 45 56.648438 L 17 56.648438 Z M 17 44 " clip-rule="nonzero"/></clipPath><clipPath id="53158b9d3e"><path d="M 0 0.109375 L 13 0.109375 L 13 14 L 0 14 Z M 0 0.109375 " clip-rule="nonzero"/></clipPath><clipPath id="857027c367"><path d="M 48 33 L 60.738281 33 L 60.738281 51 L 48 51 Z M 48 33 " clip-rule="nonzero"/></clipPath><clipPath id="195a236228"><path d="M 17 44 L 45 44 L 45 56.648438 L 17 56.648438 Z M 17 44 " clip-rule="nonzero"/></clipPath></defs><g clip-path="url(#bb2e4b3048)"><path fill="#000000" d="M 6.613281 0.453125 C 6.683594 0.570312 6.964844 1.5 7.246094 2.546875 L 7.761719 4.453125 L 9.078125 4.613281 C 11 4.824219 11.890625 5.242188 12.078125 6.007812 C 12.3125 6.9375 11.773438 7.730469 10.273438 8.613281 L 8.960938 9.378906 L 9.3125 10.890625 C 9.617188 12.238281 9.617188 12.445312 9.265625 12.957031 C 8.675781 13.839844 7.761719 13.726562 6.308594 12.585938 L 5.113281 11.65625 L 3.703125 12.355469 C 1.21875 13.585938 0.1875 12.421875 1.40625 9.726562 L 1.875 8.660156 L 0.820312 7.589844 C -0.0234375 6.777344 -0.257812 6.359375 -0.257812 5.777344 C -0.257812 4.636719 0.421875 4.171875 2.226562 4.058594 L 3.726562 3.964844 L 4.101562 2.640625 C 4.316406 1.917969 4.714844 1.105469 4.972656 0.804688 C 5.441406 0.316406 6.402344 0.105469 6.613281 0.453125 Z M 6.613281 0.453125 " fill-opacity="1" fill-rule="evenodd"/></g><path fill="#000000" d="M 37.578125 5.800781 C 37.765625 6.03125 38.304688 7.425781 38.726562 8.890625 L 39.5 11.539062 L 41.304688 11.796875 C 43.535156 12.097656 44.402344 12.65625 44.496094 13.839844 C 44.566406 14.746094 43.816406 15.816406 42.316406 16.816406 C 41.867188 17.117188 41.492188 17.535156 41.492188 17.746094 C 41.492188 17.953125 41.796875 19.324219 42.199219 20.765625 C 43.230469 24.648438 43.136719 25.390625 41.585938 25.390625 C 40.929688 25.390625 40.601562 25.160156 39.453125 23.832031 C 38.703125 22.972656 37.765625 21.929688 37.390625 21.511719 L 36.683594 20.71875 L 35.394531 21.789062 C 33.847656 23.042969 33.261719 23.253906 32.460938 22.742188 C 31.6875 22.253906 31.6875 21.253906 32.460938 18.675781 C 32.792969 17.582031 33.050781 16.675781 33.050781 16.628906 C 33.050781 16.582031 32.460938 15.933594 31.757812 15.164062 C 29.53125 12.773438 30.234375 11.214844 33.542969 11.214844 C 34.644531 11.214844 34.667969 11.191406 34.902344 10.332031 C 35.816406 7.078125 36.144531 6.125 36.519531 5.800781 C 37.058594 5.3125 37.105469 5.3125 37.578125 5.800781 Z M 37.578125 5.800781 " fill-opacity="1" fill-rule="evenodd"/><path fill="#000000" d="M 5.394531 19.140625 C 5.933594 19.675781 5.910156 19.09375 5.605469 32.015625 C 5.464844 37.476562 5.253906 41.867188 5.113281 42.285156 C 4.925781 42.867188 4.738281 43.054688 4.292969 43.054688 C 3.492188 43.054688 3.328125 42.496094 3.140625 38.984375 C 2.953125 35.476562 3.421875 19.90625 3.726562 19.324219 C 4.054688 18.722656 4.878906 18.628906 5.394531 19.140625 Z M 5.394531 19.140625 " fill-opacity="1" fill-rule="evenodd"/><path fill="#000000" d="M 28.546875 27.761719 C 29.132812 28.34375 28.757812 29.226562 26.339844 32.757812 C 23.269531 37.289062 21.320312 39.871094 18.4375 43.332031 C 15.972656 46.261719 14.871094 47.144531 13.933594 46.910156 C 12.804688 46.632812 13.296875 45.5625 16.042969 42.238281 C 18.695312 39.03125 19.65625 37.707031 22.820312 33.175781 C 26.597656 27.785156 27.605469 26.832031 28.546875 27.761719 Z M 28.546875 27.761719 " fill-opacity="1" fill-rule="evenodd"/><g clip-path="url(#bc7b790ea0)"><path fill="#000000" d="M 55.167969 34.175781 C 55.496094 34.523438 56.011719 37.546875 56.035156 39.242188 C 56.035156 39.382812 56.835938 39.660156 57.796875 39.890625 C 59.953125 40.402344 60.726562 40.9375 60.726562 41.984375 C 60.726562 42.890625 60.234375 43.378906 58.3125 44.449219 C 57.585938 44.84375 56.976562 45.214844 56.976562 45.214844 C 56.976562 45.238281 57.140625 46.074219 57.328125 47.074219 C 57.703125 49.070312 57.609375 49.910156 56.976562 50.257812 C 56.058594 50.746094 55.496094 50.511719 54.136719 49.046875 L 52.800781 47.632812 L 51.957031 48.140625 C 50.804688 48.863281 49.703125 48.746094 49.28125 47.863281 C 49 47.304688 49.023438 47.003906 49.492188 45.492188 L 50.007812 43.773438 L 49.234375 42.589844 C 47.617188 40.078125 48.132812 38.519531 50.546875 38.542969 C 51.980469 38.566406 51.792969 38.824219 52.542969 35.734375 C 52.683594 35.082031 52.988281 34.382812 53.175781 34.152344 C 53.644531 33.640625 54.675781 33.640625 55.167969 34.175781 Z M 55.167969 34.175781 " fill-opacity="1" fill-rule="evenodd"/></g><g clip-path="url(#ba221d3ac3)"><path fill="#000000" d="M 44.800781 45.238281 C 44.988281 45.65625 44.964844 45.933594 44.683594 46.492188 C 43.839844 48.097656 41.515625 49.234375 34.222656 51.558594 C 31.570312 52.394531 27.675781 53.671875 25.542969 54.371094 C 19.492188 56.371094 17.800781 56.648438 17.800781 55.648438 C 17.800781 54.554688 19.960938 53.488281 26.035156 51.535156 C 38.023438 47.675781 42.410156 46.121094 43.722656 45.238281 L 44.566406 44.679688 Z M 44.800781 45.238281 " fill-opacity="1" fill-rule="evenodd"/></g><g clip-path="url(#53158b9d3e)"><path fill="#000000" d="M 6.613281 0.453125 C 6.683594 0.570312 6.964844 1.5 7.246094 2.546875 L 7.761719 4.453125 L 9.078125 4.613281 C 11 4.824219 11.890625 5.242188 12.078125 6.007812 C 12.3125 6.9375 11.773438 7.730469 10.273438 8.613281 L 8.960938 9.378906 L 9.3125 10.890625 C 9.617188 12.238281 9.617188 12.445312 9.265625 12.957031 C 8.675781 13.839844 7.761719 13.726562 6.308594 12.585938 L 5.113281 11.65625 L 3.703125 12.355469 C 1.21875 13.585938 0.1875 12.421875 1.40625 9.726562 L 1.875 8.660156 L 0.820312 7.589844 C -0.0234375 6.777344 -0.257812 6.359375 -0.257812 5.777344 C -0.257812 4.636719 0.421875 4.171875 2.226562 4.058594 L 3.726562 3.964844 L 4.101562 2.640625 C 4.316406 1.917969 4.714844 1.105469 4.972656 0.804688 C 5.441406 0.316406 6.402344 0.105469 6.613281 0.453125 Z M 6.613281 0.453125 " fill-opacity="1" fill-rule="evenodd"/></g><path fill="#000000" d="M 37.578125 5.800781 C 37.765625 6.03125 38.304688 7.425781 38.726562 8.890625 L 39.5 11.539062 L 41.304688 11.796875 C 43.535156 12.097656 44.402344 12.65625 44.496094 13.839844 C 44.566406 14.746094 43.816406 15.816406 42.316406 16.816406 C 41.867188 17.117188 41.492188 17.535156 41.492188 17.746094 C 41.492188 17.953125 41.796875 19.324219 42.199219 20.765625 C 43.230469 24.648438 43.136719 25.390625 41.585938 25.390625 C 40.929688 25.390625 40.601562 25.160156 39.453125 23.832031 C 38.703125 22.972656 37.765625 21.929688 37.390625 21.511719 L 36.683594 20.71875 L 35.394531 21.789062 C 33.847656 23.042969 33.261719 23.253906 32.460938 22.742188 C 31.6875 22.253906 31.6875 21.253906 32.460938 18.675781 C 32.792969 17.582031 33.050781 16.675781 33.050781 16.628906 C 33.050781 16.582031 32.460938 15.933594 31.757812 15.164062 C 29.53125 12.773438 30.234375 11.214844 33.542969 11.214844 C 34.644531 11.214844 34.667969 11.191406 34.902344 10.332031 C 35.816406 7.078125 36.144531 6.125 36.519531 5.800781 C 37.058594 5.3125 37.105469 5.3125 37.578125 5.800781 Z M 37.578125 5.800781 " fill-opacity="1" fill-rule="evenodd"/><path fill="#000000" d="M 5.394531 19.140625 C 5.933594 19.675781 5.910156 19.09375 5.605469 32.015625 C 5.464844 37.476562 5.253906 41.867188 5.113281 42.285156 C 4.925781 42.867188 4.738281 43.054688 4.292969 43.054688 C 3.492188 43.054688 3.328125 42.496094 3.140625 38.984375 C 2.953125 35.476562 3.421875 19.90625 3.726562 19.324219 C 4.054688 18.722656 4.878906 18.628906 5.394531 19.140625 Z M 5.394531 19.140625 " fill-opacity="1" fill-rule="evenodd"/><path fill="#000000" d="M 28.546875 27.761719 C 29.132812 28.34375 28.757812 29.226562 26.339844 32.757812 C 23.269531 37.289062 21.320312 39.871094 18.4375 43.332031 C 15.972656 46.261719 14.871094 47.144531 13.933594 46.910156 C 12.804688 46.632812 13.296875 45.5625 16.042969 42.238281 C 18.695312 39.03125 19.65625 37.707031 22.820312 33.175781 C 26.597656 27.785156 27.605469 26.832031 28.546875 27.761719 Z M 28.546875 27.761719 " fill-opacity="1" fill-rule="evenodd"/><g clip-path="url(#857027c367)"><path fill="#000000" d="M 55.167969 34.175781 C 55.496094 34.523438 56.011719 37.546875 56.035156 39.242188 C 56.035156 39.382812 56.835938 39.660156 57.796875 39.890625 C 59.953125 40.402344 60.726562 40.9375 60.726562 41.984375 C 60.726562 42.890625 60.234375 43.378906 58.3125 44.449219 C 57.585938 44.84375 56.976562 45.214844 56.976562 45.214844 C 56.976562 45.238281 57.140625 46.074219 57.328125 47.074219 C 57.703125 49.070312 57.609375 49.910156 56.976562 50.257812 C 56.058594 50.746094 55.496094 50.511719 54.136719 49.046875 L 52.800781 47.632812 L 51.957031 48.140625 C 50.804688 48.863281 49.703125 48.746094 49.28125 47.863281 C 49 47.304688 49.023438 47.003906 49.492188 45.492188 L 50.007812 43.773438 L 49.234375 42.589844 C 47.617188 40.078125 48.132812 38.519531 50.546875 38.542969 C 51.980469 38.566406 51.792969 38.824219 52.542969 35.734375 C 52.683594 35.082031 52.988281 34.382812 53.175781 34.152344 C 53.644531 33.640625 54.675781 33.640625 55.167969 34.175781 Z M 55.167969 34.175781 " fill-opacity="1" fill-rule="evenodd"/></g><g clip-path="url(#195a236228)"><path fill="#000000" d="M 44.800781 45.238281 C 44.988281 45.65625 44.964844 45.933594 44.683594 46.492188 C 43.839844 48.097656 41.515625 49.234375 34.222656 51.558594 C 31.570312 52.394531 27.675781 53.671875 25.542969 54.371094 C 19.492188 56.371094 17.800781 56.648438 17.800781 55.648438 C 17.800781 54.554688 19.960938 53.488281 26.035156 51.535156 C 38.023438 47.675781 42.410156 46.121094 43.722656 45.238281 L 44.566406 44.679688 Z M 44.800781 45.238281 " fill-opacity="1" fill-rule="evenodd"/></g></svg>