<svg xmlns="http://www.w3.org/2000/svg" xmlns:xlink="http://www.w3.org/1999/xlink" width="656" zoomAndPan="magnify" viewBox="0 0 492 471.749988" height="629" preserveAspectRatio="xMidYMid meet" version="1.0"><defs><filter x="0%" y="0%" width="100%" height="100%" id="e7ded7577a"><feColorMatrix values="0 0 0 0 1 0 0 0 0 1 0 0 0 0 1 0 0 0 1 0" color-interpolation-filters="sRGB"/></filter><clipPath id="0db8860075"><path d="M 0.128906 0 L 491.867188 0 L 491.867188 471 L 0.128906 471 Z M 0.128906 0 " clip-rule="nonzero"/></clipPath><mask id="1493d0ced6"><g filter="url(#e7ded7577a)"><rect x="-49.2" width="590.4" fill="#000000" y="-47.174999" height="566.099986" fill-opacity="0.21"/></g></mask><clipPath id="59940f3acc"><path d="M 3 0.71875 L 491 0.71875 L 491 470 L 3 470 Z M 3 0.71875 " clip-rule="nonzero"/></clipPath><clipPath id="10daca325e"><rect x="0" width="492" y="0" height="471"/></clipPath><mask id="fb74faa161"><g filter="url(#e7ded7577a)"><rect x="-49.2" width="590.4" fill="#000000" y="-47.174999" height="566.099986" fill-opacity="0.21"/></g></mask><clipPath id="b694705344"><path d="M 3 0.71875 L 491 0.71875 L 491 470 L 3 470 Z M 3 0.71875 " clip-rule="nonzero"/></clipPath><clipPath id="00d5785781"><rect x="0" width="492" y="0" height="471"/></clipPath></defs><g clip-path="url(#0db8860075)"><g mask="url(#1493d0ced6)"><g transform="matrix(1, 0, 0, 1, 0.000000000000000028, 0)"><g clip-path="url(#10daca325e)"><g clip-path="url(#59940f3acc)"><path fill="#F5A02E" d="M 96 80.492188 C 98.039062 78.453125 100.078125 76.414062 101.097656 73.351562 C 106.199219 65.195312 106.199219 65.195312 116.398438 70.292969 C 115.378906 65.195312 114.359375 62.132812 113.339844 56.015625 C 123.535156 49.894531 132.714844 42.757812 140.875 33.578125 L 146.996094 38.675781 L 152.09375 29.496094 L 163.3125 30.519531 L 167.390625 18.277344 L 191.871094 10.121094 C 191.871094 14.199219 192.890625 16.238281 192.890625 18.277344 C 193.910156 18.277344 194.929688 18.277344 194.929688 18.277344 C 196.96875 13.179688 203.089844 9.101562 209.207031 9.101562 C 225.527344 6.039062 241.84375 2.980469 258.164062 0.941406 C 267.339844 0.941406 277.539062 0.941406 286.71875 2.980469 C 293.859375 11.140625 302.019531 8.082031 310.175781 7.058594 L 311.195312 7.058594 C 318.335938 10.121094 322.414062 18.277344 333.632812 15.21875 C 340.773438 13.179688 348.933594 19.300781 357.09375 21.339844 C 365.25 23.378906 366.269531 24.398438 362.191406 34.597656 L 369.332031 36.636719 C 369.332031 32.558594 369.332031 28.476562 374.429688 28.476562 C 377.488281 28.476562 381.570312 28.476562 384.628906 29.496094 C 395.847656 33.578125 407.066406 38.675781 417.265625 43.777344 C 421.34375 46.835938 424.40625 49.894531 427.464844 52.957031 C 434.605469 50.914062 442.761719 52.957031 448.882812 59.074219 C 449.902344 60.09375 451.941406 62.132812 451.941406 63.15625 C 449.902344 71.3125 455 72.332031 460.101562 74.375 C 469.28125 78.453125 476.417969 85.59375 479.480469 95.789062 C 483.558594 108.03125 486.617188 120.269531 487.636719 133.527344 C 488.65625 139.644531 486.617188 141.6875 481.519531 142.707031 L 472.339844 149.84375 C 474.378906 152.90625 477.4375 154.945312 479.480469 150.863281 C 480.5 148.824219 481.519531 145.765625 481.519531 142.707031 L 489.675781 146.785156 C 489.675781 161.0625 489.675781 175.34375 489.675781 189.621094 C 489.675781 193.699219 491.71875 199.820312 485.597656 201.859375 C 485.597656 201.859375 485.597656 204.917969 485.597656 205.9375 C 487.636719 214.097656 485.597656 223.277344 480.5 228.375 C 478.457031 230.417969 476.417969 233.476562 476.417969 234.496094 C 481.519531 241.636719 477.4375 247.753906 477.4375 254.894531 C 478.457031 266.113281 473.359375 276.3125 464.179688 282.429688 C 457.042969 286.511719 453.980469 294.667969 458.0625 301.808594 C 458.0625 301.808594 458.0625 301.808594 458.0625 302.828125 C 461.121094 305.886719 461.121094 310.988281 458.0625 314.046875 C 455 318.125 450.921875 317.105469 446.84375 315.066406 C 445.824219 314.046875 443.78125 314.046875 442.761719 313.027344 C 442.761719 316.085938 438.683594 320.167969 445.824219 318.125 C 445.824219 319.148438 446.84375 320.167969 445.824219 320.167969 C 437.664062 332.40625 434.605469 350.761719 412.164062 347.703125 L 418.285156 354.84375 L 410.125 361.980469 L 394.828125 354.84375 C 393.808594 357.902344 392.789062 360.960938 391.769531 363.003906 C 389.726562 373.199219 384.628906 376.261719 374.429688 372.179688 C 368.3125 371.160156 361.171875 372.179688 356.070312 375.242188 L 372.390625 382.378906 C 367.289062 392.578125 367.289062 392.578125 350.972656 389.519531 L 351.992188 398.699219 L 343.832031 400.738281 C 341.792969 400.738281 339.753906 401.757812 338.734375 401.757812 C 329.554688 405.835938 320.375 409.917969 312.214844 415.015625 C 308.136719 417.054688 304.058594 419.097656 299.976562 420.117188 C 295.898438 421.136719 291.820312 422.15625 288.757812 424.195312 C 284.679688 427.253906 279.582031 426.234375 276.519531 423.175781 C 276.519531 423.175781 276.519531 423.175781 276.519531 422.15625 C 274.480469 432.355469 266.320312 431.335938 260.203125 433.375 C 252.042969 435.414062 244.902344 437.453125 236.746094 438.472656 C 230.625 439.492188 225.527344 443.574219 219.40625 439.492188 C 216.347656 444.59375 209.207031 441.535156 204.109375 444.59375 C 191.871094 450.710938 179.632812 455.8125 166.371094 458.871094 C 158.214844 461.929688 149.035156 463.972656 140.875 466.011719 C 139.855469 463.972656 138.835938 460.910156 137.816406 456.832031 L 136.796875 461.929688 L 133.734375 468.050781 L 130.675781 461.929688 L 122.515625 469.070312 L 117.417969 458.871094 C 116.398438 460.910156 115.378906 460.910156 115.378906 460.910156 C 115.378906 460.910156 116.398438 460.910156 116.398438 461.929688 L 118.4375 463.972656 C 109.257812 470.089844 106.199219 455.8125 97.019531 456.832031 C 99.058594 460.910156 100.078125 462.953125 102.121094 467.03125 C 96 466.011719 88.859375 469.070312 91.921875 458.871094 C 86.820312 459.890625 82.742188 459.890625 78.660156 460.910156 C 74.582031 461.929688 68.464844 460.910156 68.464844 454.792969 C 70.503906 450.710938 71.523438 447.652344 73.5625 443.574219 L 65.402344 443.574219 C 66.421875 448.671875 67.441406 451.734375 68.464844 455.8125 C 62.34375 451.734375 56.222656 448.671875 50.105469 444.59375 C 48.066406 443.574219 47.046875 440.515625 48.066406 438.472656 C 48.066406 437.453125 49.085938 437.453125 49.085938 437.453125 L 41.945312 433.375 C 40.925781 433.375 40.925781 431.335938 40.925781 431.335938 C 41.945312 427.253906 41.945312 424.195312 36.847656 423.175781 C 31.746094 408.898438 23.585938 395.636719 34.804688 382.378906 C 18.488281 357.902344 6.25 337.503906 15.429688 326.285156 C 22.566406 330.367188 22.566406 330.367188 27.667969 324.246094 L 9.308594 323.226562 C 10.328125 318.125 7.269531 309.96875 16.449219 304.867188 C 5.230469 301.808594 2.171875 294.667969 5.230469 284.46875 L 12.367188 285.492188 C 13.390625 279.371094 8.289062 280.390625 4.210938 278.351562 L 8.289062 272.230469 C 6.25 269.171875 0.128906 264.074219 7.269531 259.992188 C 5.230469 255.914062 11.347656 251.835938 8.289062 246.734375 C 7.269531 244.695312 9.308594 240.617188 11.347656 237.554688 C 15.429688 229.394531 22.566406 224.296875 26.648438 217.15625 C 30.726562 210.019531 32.765625 210.019531 33.785156 202.878906 C 33.785156 201.859375 33.785156 200.839844 34.804688 199.820312 C 40.925781 193.699219 48.066406 187.582031 54.183594 181.460938 C 58.265625 177.382812 62.34375 174.324219 65.402344 171.261719 C 70.503906 166.164062 75.601562 161.0625 83.761719 163.105469 C 87.839844 155.964844 89.878906 148.824219 99.058594 146.785156 C 102.121094 137.605469 111.296875 139.644531 117.417969 135.566406 C 112.316406 135.566406 107.21875 135.566406 103.140625 135.566406 C 98.039062 134.546875 92.941406 132.507812 88.859375 130.46875 C 84.78125 117.207031 83.761719 117.207031 74.582031 119.25 L 96 80.492188 C 96 86.613281 99.058594 88.652344 103.140625 90.691406 C 107.21875 92.730469 108.238281 90.691406 108.238281 86.613281 Z M 384.628906 320.167969 L 386.667969 316.085938 C 382.589844 315.066406 379.53125 316.085938 379.53125 321.1875 L 384.628906 320.167969 C 384.628906 327.304688 389.726562 326.285156 394.828125 325.265625 C 392.789062 329.347656 395.847656 335.464844 389.726562 336.484375 C 385.648438 337.503906 381.570312 339.542969 379.53125 343.625 C 377.488281 346.683594 371.371094 350.761719 369.332031 349.742188 C 362.191406 346.683594 361.171875 352.804688 359.132812 355.863281 C 354.03125 361.980469 346.894531 366.0625 338.734375 366.0625 C 330.574219 367.082031 321.394531 368.101562 313.238281 369.121094 C 312.214844 369.121094 310.175781 371.160156 308.136719 372.179688 L 325.476562 376.261719 C 325.476562 384.417969 313.238281 381.359375 314.257812 390.539062 C 325.476562 387.480469 332.613281 378.300781 343.832031 377.28125 C 355.050781 376.261719 358.113281 366.0625 366.269531 361.980469 C 371.371094 359.941406 375.449219 356.882812 379.53125 354.84375 C 392.789062 344.644531 402.988281 330.367188 420.324219 326.285156 C 422.363281 326.285156 422.363281 324.246094 424.40625 322.207031 L 414.207031 318.125 C 411.144531 319.148438 407.066406 322.207031 405.027344 322.207031 C 399.925781 322.207031 399.925781 327.304688 395.847656 327.304688 C 395.847656 325.265625 396.867188 322.207031 392.789062 323.226562 C 389.726562 321.1875 386.667969 321.1875 384.628906 320.167969 Z M 297.9375 316.085938 C 297.9375 316.085938 296.917969 316.085938 296.917969 316.085938 C 296.917969 316.085938 295.898438 316.085938 295.898438 316.085938 C 294.878906 314.046875 294.878906 310.988281 293.859375 307.929688 L 285.699219 314.046875 L 295.898438 319.148438 C 295.898438 319.148438 296.917969 318.125 297.9375 316.085938 L 307.117188 317.105469 L 307.117188 314.046875 Z M 206.148438 38.675781 L 197.988281 35.617188 L 194.929688 44.796875 C 193.910156 45.816406 190.851562 46.835938 190.851562 47.855469 C 189.828125 52.957031 186.769531 54.996094 182.691406 53.976562 C 178.609375 53.976562 174.53125 49.894531 174.53125 45.816406 C 174.53125 45.816406 174.53125 45.816406 174.53125 44.796875 C 166.371094 43.777344 166.371094 43.777344 165.351562 49.894531 L 174.53125 44.796875 C 172.492188 48.875 170.453125 52.957031 168.414062 58.054688 C 165.351562 69.273438 157.195312 78.453125 145.976562 81.511719 C 145.976562 85.59375 146.996094 90.691406 146.996094 95.789062 C 154.132812 95.789062 152.09375 103.949219 156.171875 109.050781 C 165.351562 101.910156 177.589844 100.890625 188.808594 105.988281 L 182.691406 94.769531 C 183.710938 93.75 185.75 92.730469 187.789062 92.730469 C 195.949219 92.730469 203.089844 94.769531 207.167969 85.59375 C 208.1875 84.570312 209.207031 84.570312 210.226562 83.550781 L 259.183594 71.3125 C 266.320312 54.996094 282.640625 50.914062 295.898438 39.695312 C 296.917969 42.757812 296.917969 45.816406 297.9375 47.855469 C 304.058594 47.855469 311.195312 50.914062 313.238281 41.738281 L 308.136719 39.695312 C 308.136719 46.835938 300.996094 44.796875 297.9375 47.855469 L 302.019531 39.695312 C 291.820312 31.539062 279.582031 34.597656 269.382812 30.519531 C 268.363281 30.519531 267.339844 30.519531 266.320312 30.519531 C 262.242188 31.539062 258.164062 32.558594 254.082031 32.558594 C 250.003906 32.558594 247.964844 31.539062 245.925781 32.558594 C 237.765625 35.617188 229.605469 37.65625 221.445312 36.636719 L 228.585938 28.476562 L 228.585938 26.4375 C 221.445312 30.519531 218.386719 25.417969 215.328125 20.320312 L 215.328125 36.636719 L 202.070312 41.738281 L 206.148438 38.675781 C 206.148438 34.597656 208.1875 31.539062 209.207031 27.457031 L 200.027344 28.476562 C 202.070312 31.539062 203.089844 35.617188 206.148438 38.675781 Z M 106.199219 271.210938 L 98.039062 262.03125 C 98.039062 270.191406 101.097656 271.210938 106.199219 271.210938 L 105.179688 279.371094 L 94.980469 279.371094 C 93.960938 284.46875 103.140625 281.410156 99.058594 287.53125 C 98.039062 289.570312 99.058594 293.648438 98.039062 296.710938 C 97.019531 299.769531 96 299.769531 93.960938 301.808594 L 93.960938 294.667969 L 86.820312 295.6875 L 94.980469 314.046875 L 85.800781 316.085938 C 83.761719 328.324219 81.722656 337.503906 78.660156 347.703125 C 78.660156 348.722656 76.621094 349.742188 75.601562 350.761719 C 71.523438 350.761719 71.523438 352.804688 72.542969 355.863281 C 72.542969 357.902344 72.542969 359.941406 71.523438 361.980469 C 66.421875 368.101562 67.441406 378.300781 73.5625 383.398438 L 64.382812 386.460938 L 65.402344 388.5 L 73.5625 382.378906 C 81.722656 391.558594 91.921875 399.71875 102.121094 405.835938 C 114.359375 410.9375 126.597656 413.996094 138.835938 416.035156 C 150.054688 419.097656 161.273438 420.117188 173.511719 422.15625 C 180.652344 423.175781 188.808594 421.136719 194.929688 416.035156 C 199.007812 412.976562 203.089844 410.9375 207.167969 408.898438 C 218.386719 403.796875 229.605469 396.660156 239.804688 389.519531 C 250.003906 381.359375 263.261719 380.339844 272.441406 371.160156 C 275.5 368.101562 279.582031 367.082031 283.660156 369.121094 C 285.699219 370.140625 289.777344 369.121094 293.859375 368.101562 L 285.699219 361.980469 C 291.820312 357.902344 296.917969 354.84375 303.039062 350.761719 C 314.257812 342.605469 325.476562 334.445312 336.695312 327.304688 C 339.753906 325.265625 347.914062 325.265625 348.933594 323.226562 C 350.972656 316.085938 358.113281 315.066406 361.171875 308.949219 C 372.390625 302.828125 382.589844 294.667969 391.769531 285.492188 C 398.90625 277.332031 406.046875 270.191406 414.207031 263.054688 C 417.265625 259.992188 421.34375 257.953125 424.40625 255.914062 C 426.445312 242.65625 426.445312 241.636719 438.683594 242.65625 L 432.5625 238.574219 C 434.605469 234.496094 435.625 230.417969 437.664062 227.355469 C 438.683594 225.316406 439.703125 224.296875 441.742188 223.277344 C 443.78125 223.277344 444.800781 223.277344 446.84375 223.277344 C 445.824219 221.238281 445.824219 220.21875 445.824219 218.175781 C 445.824219 217.15625 448.882812 214.097656 447.863281 214.097656 C 441.742188 209 445.824219 201.859375 444.800781 195.738281 C 443.78125 182.480469 444.800781 168.203125 437.664062 155.964844 C 433.582031 148.824219 432.5625 140.667969 436.644531 133.527344 C 430.523438 129.445312 423.386719 127.40625 427.464844 119.25 C 427.464844 119.25 425.425781 118.226562 424.40625 117.207031 C 422.363281 115.167969 420.324219 113.128906 419.304688 111.089844 C 416.246094 104.96875 414.207031 97.832031 412.167969 91.710938 L 417.265625 93.75 C 418.285156 90.691406 419.304688 88.652344 421.34375 83.550781 L 412.167969 91.710938 C 408.085938 87.632812 405.027344 83.550781 399.925781 79.472656 C 392.789062 73.351562 384.628906 67.234375 375.449219 64.175781 C 360.152344 59.074219 342.8125 59.074219 330.574219 50.914062 C 319.355469 63.15625 302.019531 65.195312 294.878906 81.511719 C 298.957031 83.550781 303.039062 84.570312 306.097656 85.59375 C 325.476562 89.671875 343.832031 99.871094 357.09375 115.167969 C 358.113281 116.1875 360.152344 116.1875 361.171875 117.207031 C 364.230469 120.269531 367.289062 123.328125 370.351562 126.386719 C 374.429688 128.425781 377.488281 132.507812 377.488281 137.605469 C 384.628906 139.644531 380.550781 143.726562 380.550781 147.804688 C 380.550781 149.84375 384.628906 152.90625 385.648438 151.886719 C 390.75 150.863281 392.789062 154.945312 394.828125 158.003906 C 399.925781 166.164062 404.007812 174.324219 407.066406 182.480469 C 409.105469 190.640625 416.246094 197.78125 409.105469 206.957031 C 411.144531 213.078125 413.1875 219.199219 407.066406 223.277344 C 408.085938 224.296875 409.105469 224.296875 409.105469 225.316406 C 410.125 226.335938 411.144531 228.375 411.144531 229.398438 C 408.085938 236.535156 405.027344 243.675781 402.988281 250.8125 C 404.007812 252.855469 404.007812 253.875 404.007812 255.914062 C 402.988281 261.011719 397.886719 258.972656 393.808594 258.972656 C 397.886719 262.03125 397.886719 268.152344 394.828125 271.210938 C 393.808594 272.230469 392.789062 273.25 390.75 274.273438 C 386.667969 276.3125 385.648438 279.371094 383.609375 283.449219 C 378.507812 290.589844 367.289062 291.609375 366.269531 301.808594 C 358.113281 301.808594 361.171875 307.929688 362.191406 312.007812 C 359.132812 307.929688 356.070312 308.949219 353.011719 312.007812 C 346.894531 319.148438 336.695312 321.1875 327.515625 317.105469 L 315.277344 314.046875 C 316.296875 317.105469 318.335938 320.167969 320.375 323.226562 C 325.476562 329.347656 325.476562 330.367188 319.355469 334.445312 C 313.238281 338.523438 306.097656 339.542969 303.039062 345.664062 C 303.039062 346.683594 302.019531 347.703125 300.996094 347.703125 C 292.839844 343.625 290.800781 351.785156 285.699219 354.84375 C 282.640625 355.863281 280.601562 355.863281 277.539062 355.863281 C 270.402344 352.804688 270.402344 352.804688 267.339844 357.902344 L 277.539062 355.863281 C 270.402344 360.960938 265.300781 369.121094 255.101562 368.101562 C 253.0625 368.101562 251.023438 371.160156 247.964844 372.179688 C 240.824219 376.261719 233.683594 381.359375 226.546875 385.441406 C 225.527344 386.460938 223.484375 386.460938 222.464844 385.441406 C 218.386719 380.339844 215.328125 384.417969 213.289062 386.460938 C 209.207031 392.578125 200.027344 395.636719 192.890625 392.578125 C 190.851562 391.558594 188.808594 391.558594 186.769531 391.558594 C 182.691406 394.617188 179.632812 399.71875 176.570312 399.71875 C 164.332031 400.738281 153.113281 399.71875 141.894531 394.617188 C 138.835938 393.597656 134.753906 393.597656 131.695312 393.597656 C 126.597656 393.597656 120.476562 394.617188 117.417969 387.480469 L 122.515625 382.378906 C 121.496094 381.359375 120.476562 380.339844 119.457031 380.339844 C 117.417969 380.339844 115.378906 380.339844 113.339844 380.339844 C 111.296875 380.339844 108.238281 381.359375 106.199219 381.359375 C 93.960938 375.242188 85.800781 361.980469 87.839844 348.722656 C 89.878906 338.523438 87.839844 328.324219 93.960938 319.148438 C 93.960938 318.125 93.960938 317.105469 92.941406 315.066406 C 94.980469 308.949219 98.039062 302.828125 101.097656 297.730469 C 102.121094 295.6875 105.179688 294.667969 107.21875 293.648438 C 108.238281 290.589844 108.238281 288.550781 109.257812 286.511719 C 111.296875 289.570312 110.277344 296.710938 119.457031 292.628906 L 109.257812 286.511719 C 113.339844 279.371094 117.417969 272.230469 122.515625 266.113281 C 132.714844 252.855469 143.933594 240.617188 153.113281 226.335938 C 156.171875 221.238281 162.292969 219.199219 165.351562 214.097656 C 175.550781 201.859375 183.710938 188.601562 192.890625 175.34375 C 196.96875 171.261719 201.046875 168.203125 205.128906 165.144531 C 206.148438 164.125 209.207031 170.242188 210.226562 165.144531 C 210.226562 164.125 209.207031 161.0625 208.1875 160.042969 C 210.226562 156.984375 219.40625 160.042969 216.347656 151.886719 L 226.546875 150.863281 C 225.527344 147.804688 224.507812 144.746094 223.484375 141.6875 L 272.441406 102.929688 C 268.363281 98.851562 265.300781 98.851562 262.242188 101.910156 C 255.101562 107.007812 248.984375 112.109375 242.863281 118.226562 C 237.765625 124.347656 230.625 128.425781 222.464844 128.425781 C 221.445312 132.507812 220.425781 136.585938 218.386719 138.625 C 216.347656 140.664062 212.265625 138.625 208.1875 138.625 L 209.207031 144.746094 C 204.109375 147.804688 200.027344 151.886719 196.96875 156.984375 C 194.929688 161.0625 188.808594 162.082031 188.808594 163.105469 C 188.808594 169.222656 185.75 170.242188 181.671875 171.261719 C 180.652344 171.261719 179.632812 172.28125 179.632812 173.300781 C 178.609375 182.480469 172.492188 184.519531 164.332031 184.519531 C 163.3125 184.519531 162.292969 185.542969 161.273438 186.5625 L 164.332031 195.738281 L 152.09375 196.761719 L 157.195312 204.917969 C 151.074219 206.957031 143.933594 204.917969 138.835938 200.839844 C 139.855469 211.039062 145.976562 210.019531 152.09375 209 L 145.976562 218.175781 C 140.875 216.136719 136.796875 206.957031 129.65625 214.097656 C 130.675781 219.199219 134.753906 224.296875 139.855469 225.316406 L 135.777344 225.316406 C 137.816406 233.476562 129.65625 236.535156 127.617188 243.675781 L 115.378906 245.714844 L 121.496094 252.855469 L 106.199219 254.894531 C 107.21875 258.972656 108.238281 262.03125 109.257812 264.074219 L 115.378906 261.011719 C 115.378906 269.171875 111.296875 270.191406 106.199219 271.210938 Z M 155.152344 264.074219 C 152.09375 267.132812 146.996094 269.171875 153.113281 274.273438 L 162.292969 267.132812 L 164.332031 273.25 L 153.113281 280.390625 C 153.113281 284.46875 160.253906 286.511719 155.152344 291.609375 C 149.035156 296.710938 144.953125 304.867188 144.953125 313.027344 C 143.933594 316.085938 143.933594 319.148438 141.894531 322.207031 L 131.695312 323.226562 C 139.855469 327.304688 139.855469 327.304688 137.816406 335.464844 C 136.796875 340.566406 136.796875 346.683594 136.796875 351.785156 L 151.074219 358.921875 C 155.152344 355.863281 158.214844 352.804688 161.273438 349.742188 C 166.371094 343.625 171.472656 337.503906 176.570312 330.367188 C 181.671875 323.226562 183.710938 320.167969 186.769531 315.066406 C 191.871094 305.886719 196.96875 294.667969 209.207031 291.609375 C 212.265625 290.589844 215.328125 288.550781 218.386719 287.53125 L 208.1875 287.53125 C 211.246094 282.429688 213.289062 279.371094 215.328125 275.292969 C 217.367188 273.25 218.386719 271.210938 220.425781 269.171875 C 230.625 256.933594 234.703125 240.613281 250.003906 232.457031 C 250.003906 232.457031 251.023438 231.4375 251.023438 230.417969 C 247.964844 223.277344 255.101562 222.257812 257.144531 217.15625 L 268.363281 220.21875 L 258.164062 212.058594 L 276.519531 182.480469 C 267.339844 181.460938 258.164062 183.5 251.023438 189.621094 C 243.882812 195.738281 235.726562 199.820312 227.566406 202.878906 C 220.425781 203.898438 216.347656 211.039062 209.207031 213.078125 C 208.1875 213.078125 207.167969 214.097656 207.167969 215.117188 C 206.148438 226.335938 195.949219 231.4375 189.828125 239.59375 C 186.769531 243.675781 181.671875 245.714844 176.570312 245.714844 C 176.570312 245.714844 175.550781 246.734375 175.550781 247.753906 L 183.710938 250.8125 L 170.453125 263.054688 L 168.414062 262.03125 C 169.433594 258.972656 170.453125 256.933594 171.472656 253.875 L 157.195312 245.714844 C 150.054688 254.894531 149.035156 255.914062 155.152344 264.074219 Z M 50.105469 224.296875 L 52.144531 213.078125 C 49.085938 215.117188 45.003906 218.175781 41.945312 221.238281 C 40.925781 222.257812 40.925781 224.296875 41.945312 225.316406 C 42.964844 226.335938 43.984375 227.355469 46.023438 227.355469 C 47.046875 226.335938 49.085938 225.316406 50.105469 224.296875 C 47.046875 228.375 40.925781 231.4375 43.984375 238.574219 C 43.984375 238.574219 43.984375 239.59375 43.984375 239.59375 C 40.925781 245.714844 38.886719 250.8125 36.847656 256.933594 C 34.804688 258.972656 31.746094 263.054688 37.867188 266.113281 C 39.90625 267.132812 38.886719 275.292969 32.765625 276.3125 C 33.785156 273.25 34.804688 271.210938 35.828125 268.152344 C 31.746094 266.113281 28.6875 264.074219 24.609375 262.03125 C 22.566406 261.011719 19.507812 261.011719 16.449219 262.03125 C 16.449219 262.03125 15.429688 265.09375 15.429688 265.09375 C 17.46875 266.113281 19.507812 267.132812 22.566406 268.152344 L 22.566406 276.3125 L 27.667969 271.210938 L 32.765625 276.3125 C 37.867188 282.429688 33.785156 286.511719 28.6875 289.570312 C 36.847656 297.730469 41.945312 308.949219 41.945312 320.167969 C 41.945312 324.246094 42.964844 328.324219 43.984375 332.40625 C 47.046875 328.324219 48.066406 326.285156 49.085938 324.246094 C 50.105469 322.207031 51.125 320.167969 52.144531 318.125 C 57.246094 304.867188 59.285156 289.570312 71.523438 280.390625 C 72.542969 279.371094 72.542969 278.351562 73.5625 277.332031 C 71.523438 271.210938 78.660156 268.152344 79.683594 264.074219 C 80.703125 257.953125 84.78125 254.894531 87.839844 250.8125 C 91.921875 245.714844 94.980469 240.617188 96 235.515625 C 97.019531 232.457031 98.039062 230.417969 100.078125 228.375 C 102.121094 227.355469 104.160156 226.335938 106.199219 225.316406 C 102.121094 219.199219 109.257812 222.257812 110.277344 220.21875 C 111.296875 218.175781 112.316406 217.15625 112.316406 216.136719 C 115.378906 209 119.457031 202.878906 123.535156 196.761719 L 128.636719 200.839844 C 134.753906 195.738281 128.636719 185.542969 136.796875 180.441406 C 142.914062 175.34375 148.015625 169.222656 154.132812 163.105469 C 159.234375 158.003906 165.351562 152.90625 172.492188 146.785156 C 173.511719 151.886719 173.511719 155.964844 173.511719 159.023438 L 174.53125 159.023438 C 176.570312 153.925781 177.589844 149.84375 179.632812 144.746094 C 181.671875 151.886719 184.730469 153.925781 191.871094 149.84375 L 178.609375 145.765625 L 175.550781 139.644531 C 184.730469 130.46875 196.96875 125.367188 201.046875 112.109375 C 197.988281 112.109375 194.929688 112.109375 194.929688 114.148438 C 191.871094 121.289062 186.769531 122.308594 180.652344 120.269531 C 174.53125 134.546875 159.234375 142.707031 143.933594 140.667969 C 139.855469 142.707031 150.054688 149.84375 139.855469 149.84375 C 139.855469 147.804688 139.855469 145.765625 138.835938 141.6875 L 127.617188 143.726562 L 135.777344 152.90625 C 125.578125 151.886719 127.617188 167.183594 117.417969 164.125 L 111.296875 153.925781 C 108.238281 159.023438 103.140625 164.125 105.179688 165.144531 C 109.257812 171.261719 102.121094 174.324219 100.078125 175.34375 C 93.960938 178.402344 89.878906 186.5625 80.703125 183.5 C 79.683594 183.5 77.640625 185.542969 74.582031 187.582031 L 81.722656 193.699219 C 70.503906 204.917969 70.503906 204.917969 59.285156 205.9375 C 59.285156 209 58.265625 212.058594 57.246094 215.117188 C 56.222656 218.175781 56.222656 224.296875 50.105469 224.296875 Z M 234.703125 292.628906 C 229.605469 301.808594 222.464844 310.988281 215.328125 319.148438 C 209.207031 324.246094 209.207031 330.367188 204.109375 336.484375 C 208.1875 336.484375 211.246094 337.503906 212.265625 336.484375 C 217.367188 333.425781 222.464844 330.367188 228.585938 327.304688 C 234.703125 323.226562 238.785156 317.105469 246.945312 318.125 C 247.964844 318.125 247.964844 315.066406 250.003906 314.046875 C 257.144531 308.949219 263.261719 302.828125 273.460938 305.886719 C 273.460938 293.648438 284.679688 291.609375 291.820312 285.492188 C 298.957031 279.371094 304.058594 276.3125 310.175781 271.210938 C 316.296875 266.113281 323.433594 264.074219 324.457031 254.894531 C 324.457031 253.875 328.535156 252.855469 329.554688 250.8125 L 339.753906 245.714844 L 330.574219 241.636719 C 336.695312 225.316406 333.632812 206.957031 321.394531 194.71875 C 320.375 192.679688 320.375 189.621094 320.375 185.542969 C 307.117188 188.601562 294.878906 192.679688 293.859375 209 C 293.859375 211.039062 292.839844 213.078125 291.820312 214.097656 C 284.679688 222.257812 278.558594 231.4375 273.460938 240.617188 C 272.441406 241.636719 270.402344 242.65625 269.382812 243.675781 C 265.300781 252.855469 253.0625 255.914062 253.0625 268.152344 L 240.824219 269.171875 C 240.824219 273.25 242.863281 278.351562 240.824219 280.390625 C 237.765625 285.492188 232.664062 280.390625 228.585938 278.351562 L 233.683594 286.511719 C 228.585938 287.53125 222.464844 285.492188 221.445312 291.609375 C 226.546875 298.75 228.585938 290.589844 234.703125 292.628906 Z M 387.6875 202.878906 C 385.648438 199.820312 383.609375 197.78125 382.589844 195.738281 C 381.570312 193.699219 382.589844 190.640625 377.488281 190.640625 C 375.449219 189.621094 374.429688 188.601562 373.410156 186.5625 C 371.371094 179.421875 370.351562 172.28125 369.332031 166.164062 C 365.25 162.082031 362.191406 158.003906 359.132812 154.945312 C 363.210938 143.726562 363.210938 143.726562 358.113281 140.664062 L 357.09375 143.726562 L 333.632812 123.328125 C 330.574219 126.386719 326.496094 129.445312 325.476562 132.507812 C 324.457031 140.664062 323.433594 148.824219 323.433594 156.984375 C 324.457031 156.984375 324.457031 158.003906 325.476562 158.003906 C 329.554688 160.042969 332.613281 163.105469 333.632812 167.183594 C 334.65625 169.222656 342.8125 168.203125 344.851562 170.242188 C 350.972656 176.363281 356.070312 181.460938 361.171875 188.601562 L 353.011719 193.699219 C 357.09375 200.839844 367.289062 199.820312 369.332031 207.980469 C 370.351562 215.117188 371.371094 222.257812 372.390625 231.4375 C 379.53125 221.238281 373.410156 206.957031 387.6875 202.878906 Z M 263.261719 138.625 C 267.339844 149.84375 275.5 150.863281 284.679688 150.863281 C 286.71875 150.863281 288.757812 149.84375 290.800781 147.804688 C 293.859375 139.644531 296.917969 130.46875 298.957031 121.289062 C 298.957031 120.269531 296.917969 119.25 294.878906 117.207031 C 293.859375 126.386719 290.800781 131.488281 281.621094 127.40625 C 282.640625 131.488281 282.640625 133.527344 282.640625 135.566406 C 272.441406 141.6875 272.441406 141.6875 263.261719 138.625 Z M 34.804688 360.960938 C 41.945312 367.082031 42.964844 367.082031 47.046875 364.023438 C 50.105469 360.960938 54.183594 360.960938 57.246094 363.003906 C 58.265625 364.023438 60.304688 363.003906 63.363281 363.003906 C 49.085938 353.824219 49.085938 353.824219 34.804688 360.960938 Z M 125.578125 276.3125 C 127.617188 280.390625 131.695312 284.46875 130.675781 286.511719 C 126.597656 294.667969 133.734375 292.628906 134.753906 294.667969 C 135.777344 290.589844 136.796875 286.511719 137.816406 283.449219 Z M 157.195312 114.148438 C 157.195312 116.1875 156.171875 118.226562 156.171875 121.289062 L 148.015625 123.328125 C 159.234375 130.46875 161.273438 124.347656 162.292969 117.207031 L 172.492188 117.207031 L 172.492188 116.1875 Z M 171.472656 32.558594 C 185.75 29.496094 185.75 29.496094 187.789062 25.417969 L 174.53125 26.4375 C 175.550781 22.359375 177.589844 19.300781 171.472656 19.300781 Z M 136.796875 112.109375 C 140.875 113.128906 143.933594 118.226562 148.015625 112.109375 L 140.875 99.871094 Z M 367.289062 252.855469 L 356.070312 265.09375 L 369.332031 266.113281 C 368.3125 261.011719 368.3125 257.953125 367.289062 252.855469 Z M 137.816406 64.175781 C 133.734375 64.175781 129.65625 62.132812 127.617188 64.175781 C 122.515625 68.253906 129.65625 70.292969 130.675781 73.351562 C 135.777344 71.3125 140.875 70.292969 137.816406 64.175781 Z M 96 443.574219 C 84.78125 440.515625 84.78125 440.515625 81.722656 445.613281 Z M 381.570312 47.855469 L 380.550781 49.894531 L 390.75 56.015625 C 390.75 48.875 386.667969 47.855469 381.570312 47.855469 Z M 432.5625 302.828125 C 435.625 310.988281 435.625 310.988281 442.761719 305.886719 C 439.703125 305.886719 437.664062 298.75 432.5625 302.828125 Z M 451.941406 156.984375 C 449.902344 153.925781 448.882812 150.863281 446.84375 147.804688 L 440.722656 159.023438 Z M 377.488281 331.386719 C 377.488281 326.285156 373.410156 325.265625 370.351562 326.285156 C 367.289062 327.304688 367.289062 328.324219 365.25 331.386719 Z M 444.800781 206.957031 C 450.921875 207.980469 455 207.980469 452.960938 201.859375 C 451.941406 199.820312 450.921875 197.78125 449.902344 196.761719 Z M 271.421875 110.070312 C 273.460938 122.308594 281.621094 114.148438 285.699219 117.207031 Z M 446.84375 182.480469 C 452.960938 185.542969 457.042969 189.621094 463.160156 183.5 Z M 483.558594 187.582031 L 485.597656 184.519531 C 483.558594 183.5 480.5 182.480469 478.457031 181.460938 C 478.457031 182.480469 477.4375 183.5 477.4375 184.519531 C 478.457031 185.542969 481.519531 186.5625 483.558594 187.582031 Z M 193.910156 210.019531 C 186.769531 217.15625 186.769531 217.15625 192.890625 221.238281 Z M 203.089844 347.703125 C 197.988281 340.566406 197.988281 340.566406 190.851562 349.742188 Z M 348.933594 40.714844 L 337.714844 48.875 L 350.972656 47.855469 Z M 133.734375 119.25 L 127.617188 112.109375 C 126.597656 115.167969 125.578125 117.207031 124.558594 120.269531 Z M 440.722656 126.386719 C 440.722656 133.527344 443.78125 133.527344 447.863281 132.507812 C 447.863281 132.507812 448.882812 131.488281 449.902344 130.46875 Z M 193.910156 144.746094 C 193.910156 140.667969 193.910156 138.625 192.890625 135.566406 C 191.871094 138.625 184.730469 141.6875 193.910156 144.746094 Z M 120.476562 228.375 C 122.515625 228.375 124.558594 227.355469 125.578125 226.335938 C 127.617188 225.316406 128.636719 224.296875 129.65625 223.277344 C 123.535156 220.21875 121.496094 224.296875 120.476562 228.375 Z M 144.953125 52.957031 C 143.933594 58.054688 143.933594 61.113281 142.914062 66.214844 C 145.976562 62.132812 152.09375 59.074219 144.953125 52.957031 Z M 305.078125 382.378906 L 308.136719 378.300781 C 307.117188 377.28125 305.078125 377.28125 303.039062 377.28125 C 300.996094 377.28125 299.976562 377.28125 297.9375 378.300781 L 297.9375 380.339844 Z M 240.824219 147.804688 C 248.984375 151.886719 248.984375 151.886719 250.003906 145.765625 Z M 179.632812 225.316406 C 183.710938 231.4375 183.710938 231.4375 189.828125 231.4375 Z M 306.097656 137.605469 L 306.097656 140.664062 L 315.277344 139.644531 L 315.277344 137.605469 Z M 220.425781 112.109375 L 221.445312 115.167969 L 226.546875 112.109375 C 226.546875 111.089844 225.527344 109.050781 225.527344 109.050781 C 224.507812 111.089844 222.464844 111.089844 220.425781 112.109375 Z M 386.667969 248.773438 L 384.628906 246.734375 C 383.609375 247.753906 381.570312 249.792969 380.550781 250.8125 C 380.550781 250.8125 381.570312 251.835938 381.570312 251.835938 C 381.570312 251.835938 385.648438 249.792969 386.667969 248.773438 Z M 331.59375 38.675781 L 329.554688 35.617188 C 328.535156 36.636719 327.515625 38.675781 326.496094 39.695312 C 326.496094 39.695312 327.515625 40.714844 328.535156 41.738281 Z M 288.757812 67.234375 L 297.9375 68.253906 C 295.898438 65.195312 292.839844 62.132812 288.757812 67.234375 Z M 212.265625 122.308594 L 213.289062 120.269531 L 206.148438 116.1875 L 205.128906 118.226562 Z M 472.339844 140.664062 C 469.28125 135.566406 467.238281 135.566406 463.160156 140.664062 Z M 172.492188 232.457031 C 174.53125 226.335938 173.511719 223.277344 166.371094 227.355469 Z M 385.648438 170.242188 L 383.609375 170.242188 L 381.570312 175.34375 L 384.628906 175.34375 Z M 253.0625 355.863281 L 251.023438 353.824219 L 246.945312 359.941406 L 248.984375 360.960938 Z M 368.3125 342.605469 L 370.351562 344.644531 L 374.429688 341.585938 L 372.390625 339.542969 Z M 464.179688 254.894531 L 466.21875 254.894531 L 466.21875 249.792969 L 464.179688 249.792969 C 465.199219 251.835938 465.199219 253.875 464.179688 254.894531 Z M 93.960938 97.832031 L 97.019531 97.832031 L 96 90.691406 L 93.960938 90.691406 Z M 290.800781 89.671875 L 287.738281 92.730469 C 288.757812 93.75 289.777344 94.769531 289.777344 94.769531 C 290.800781 94.769531 291.820312 93.75 291.820312 92.730469 C 292.839844 91.710938 291.820312 90.691406 290.800781 89.671875 Z M 365.25 241.636719 L 366.269531 244.695312 L 371.371094 242.65625 C 371.371094 241.636719 371.371094 241.636719 370.351562 240.617188 C 369.332031 240.617188 367.289062 241.636719 365.25 241.636719 Z M 280.601562 189.621094 L 281.621094 192.679688 L 288.757812 190.640625 L 287.738281 188.601562 Z M 105.179688 144.746094 L 104.160156 146.785156 L 111.296875 148.824219 L 111.296875 146.785156 Z M 219.40625 171.261719 L 217.367188 172.28125 C 217.367188 173.300781 217.367188 174.324219 218.386719 175.34375 C 219.40625 176.363281 219.40625 176.363281 220.425781 177.382812 Z M 188.808594 205.9375 L 178.609375 205.9375 C 182.691406 210.019531 185.75 211.039062 188.808594 205.9375 Z M 155.152344 264.074219 C 155.152344 259.992188 153.113281 253.875 160.253906 250.8125 C 161.273438 254.894531 166.371094 256.933594 163.3125 261.011719 C 161.273438 263.054688 157.195312 263.054688 155.152344 264.074219 Z M 155.152344 264.074219 " fill-opacity="1" fill-rule="nonzero"/></g></g></g></g><g mask="url(#fb74faa161)"><g transform="matrix(1, 0, 0, 1, 0.000000000000000028, 0)"><g clip-path="url(#00d5785781)"><g clip-path="url(#b694705344)"><path fill="#F5A02E" d="M 96 80.492188 C 98.039062 78.453125 100.078125 76.414062 101.097656 73.351562 C 106.199219 65.195312 106.199219 65.195312 116.398438 70.292969 C 115.378906 65.195312 114.359375 62.132812 113.339844 56.015625 C 123.535156 49.894531 132.714844 42.757812 140.875 33.578125 L 146.996094 38.675781 L 152.09375 29.496094 L 163.3125 30.519531 L 167.390625 18.277344 L 191.871094 10.121094 C 191.871094 14.199219 192.890625 16.238281 192.890625 18.277344 C 193.910156 18.277344 194.929688 18.277344 194.929688 18.277344 C 196.96875 13.179688 203.089844 9.101562 209.207031 9.101562 C 225.527344 6.039062 241.84375 2.980469 258.164062 0.941406 C 267.339844 0.941406 277.539062 0.941406 286.71875 2.980469 C 293.859375 11.140625 302.019531 8.082031 310.175781 7.058594 L 311.195312 7.058594 C 318.335938 10.121094 322.414062 18.277344 333.632812 15.21875 C 340.773438 13.179688 348.933594 19.300781 357.09375 21.339844 C 365.25 23.378906 366.269531 24.398438 362.191406 34.597656 L 369.332031 36.636719 C 369.332031 32.558594 369.332031 28.476562 374.429688 28.476562 C 377.488281 28.476562 381.570312 28.476562 384.628906 29.496094 C 395.847656 33.578125 407.066406 38.675781 417.265625 43.777344 C 421.34375 46.835938 424.40625 49.894531 427.464844 52.957031 C 434.605469 50.914062 442.761719 52.957031 448.882812 59.074219 C 449.902344 60.09375 451.941406 62.132812 451.941406 63.15625 C 449.902344 71.3125 455 72.332031 460.101562 74.375 C 469.28125 78.453125 476.417969 85.59375 479.480469 95.789062 C 483.558594 108.03125 486.617188 120.269531 487.636719 133.527344 C 488.65625 139.644531 486.617188 141.6875 481.519531 142.707031 L 472.339844 149.84375 C 474.378906 152.90625 477.4375 154.945312 479.480469 150.863281 C 480.5 148.824219 481.519531 145.765625 481.519531 142.707031 L 489.675781 146.785156 C 489.675781 161.0625 489.675781 175.34375 489.675781 189.621094 C 489.675781 193.699219 491.71875 199.820312 485.597656 201.859375 C 485.597656 201.859375 485.597656 204.917969 485.597656 205.9375 C 487.636719 214.097656 485.597656 223.277344 480.5 228.375 C 478.457031 230.417969 476.417969 233.476562 476.417969 234.496094 C 481.519531 241.636719 477.4375 247.753906 477.4375 254.894531 C 478.457031 266.113281 473.359375 276.3125 464.179688 282.429688 C 457.042969 286.511719 453.980469 294.667969 458.0625 301.808594 C 458.0625 301.808594 458.0625 301.808594 458.0625 302.828125 C 461.121094 305.886719 461.121094 310.988281 458.0625 314.046875 C 455 318.125 450.921875 317.105469 446.84375 315.066406 C 445.824219 314.046875 443.78125 314.046875 442.761719 313.027344 C 442.761719 316.085938 438.683594 320.167969 445.824219 318.125 C 445.824219 319.148438 446.84375 320.167969 445.824219 320.167969 C 437.664062 332.40625 434.605469 350.761719 412.164062 347.703125 L 418.285156 354.84375 L 410.125 361.980469 L 394.828125 354.84375 C 393.808594 357.902344 392.789062 360.960938 391.769531 363.003906 C 389.726562 373.199219 384.628906 376.261719 374.429688 372.179688 C 368.3125 371.160156 361.171875 372.179688 356.070312 375.242188 L 372.390625 382.378906 C 367.289062 392.578125 367.289062 392.578125 350.972656 389.519531 L 351.992188 398.699219 L 343.832031 400.738281 C 341.792969 400.738281 339.753906 401.757812 338.734375 401.757812 C 329.554688 405.835938 320.375 409.917969 312.214844 415.015625 C 308.136719 417.054688 304.058594 419.097656 299.976562 420.117188 C 295.898438 421.136719 291.820312 422.15625 288.757812 424.195312 C 284.679688 427.253906 279.582031 426.234375 276.519531 423.175781 C 276.519531 423.175781 276.519531 423.175781 276.519531 422.15625 C 274.480469 432.355469 266.320312 431.335938 260.203125 433.375 C 252.042969 435.414062 244.902344 437.453125 236.746094 438.472656 C 230.625 439.492188 225.527344 443.574219 219.40625 439.492188 C 216.347656 444.59375 209.207031 441.535156 204.109375 444.59375 C 191.871094 450.710938 179.632812 455.8125 166.371094 458.871094 C 158.214844 461.929688 149.035156 463.972656 140.875 466.011719 C 139.855469 463.972656 138.835938 460.910156 137.816406 456.832031 L 136.796875 461.929688 L 133.734375 468.050781 L 130.675781 461.929688 L 122.515625 469.070312 L 117.417969 458.871094 C 116.398438 460.910156 115.378906 460.910156 115.378906 460.910156 C 115.378906 460.910156 116.398438 460.910156 116.398438 461.929688 L 118.4375 463.972656 C 109.257812 470.089844 106.199219 455.8125 97.019531 456.832031 C 99.058594 460.910156 100.078125 462.953125 102.121094 467.03125 C 96 466.011719 88.859375 469.070312 91.921875 458.871094 C 86.820312 459.890625 82.742188 459.890625 78.660156 460.910156 C 74.582031 461.929688 68.464844 460.910156 68.464844 454.792969 C 70.503906 450.710938 71.523438 447.652344 73.5625 443.574219 L 65.402344 443.574219 C 66.421875 448.671875 67.441406 451.734375 68.464844 455.8125 C 62.34375 451.734375 56.222656 448.671875 50.105469 444.59375 C 48.066406 443.574219 47.046875 440.515625 48.066406 438.472656 C 48.066406 437.453125 49.085938 437.453125 49.085938 437.453125 L 41.945312 433.375 C 40.925781 433.375 40.925781 431.335938 40.925781 431.335938 C 41.945312 427.253906 41.945312 424.195312 36.847656 423.175781 C 31.746094 408.898438 23.585938 395.636719 34.804688 382.378906 C 18.488281 357.902344 6.25 337.503906 15.429688 326.285156 C 22.566406 330.367188 22.566406 330.367188 27.667969 324.246094 L 9.308594 323.226562 C 10.328125 318.125 7.269531 309.96875 16.449219 304.867188 C 5.230469 301.808594 2.171875 294.667969 5.230469 284.46875 L 12.367188 285.492188 C 13.390625 279.371094 8.289062 280.390625 4.210938 278.351562 L 8.289062 272.230469 C 6.25 269.171875 0.128906 264.074219 7.269531 259.992188 C 5.230469 255.914062 11.347656 251.835938 8.289062 246.734375 C 7.269531 244.695312 9.308594 240.617188 11.347656 237.554688 C 15.429688 229.394531 22.566406 224.296875 26.648438 217.15625 C 30.726562 210.019531 32.765625 210.019531 33.785156 202.878906 C 33.785156 201.859375 33.785156 200.839844 34.804688 199.820312 C 40.925781 193.699219 48.066406 187.582031 54.183594 181.460938 C 58.265625 177.382812 62.34375 174.324219 65.402344 171.261719 C 70.503906 166.164062 75.601562 161.0625 83.761719 163.105469 C 87.839844 155.964844 89.878906 148.824219 99.058594 146.785156 C 102.121094 137.605469 111.296875 139.644531 117.417969 135.566406 C 112.316406 135.566406 107.21875 135.566406 103.140625 135.566406 C 98.039062 134.546875 92.941406 132.507812 88.859375 130.46875 C 84.78125 117.207031 83.761719 117.207031 74.582031 119.25 L 96 80.492188 C 96 86.613281 99.058594 88.652344 103.140625 90.691406 C 107.21875 92.730469 108.238281 90.691406 108.238281 86.613281 Z M 384.628906 320.167969 L 386.667969 316.085938 C 382.589844 315.066406 379.53125 316.085938 379.53125 321.1875 L 384.628906 320.167969 C 384.628906 327.304688 389.726562 326.285156 394.828125 325.265625 C 392.789062 329.347656 395.847656 335.464844 389.726562 336.484375 C 385.648438 337.503906 381.570312 339.542969 379.53125 343.625 C 377.488281 346.683594 371.371094 350.761719 369.332031 349.742188 C 362.191406 346.683594 361.171875 352.804688 359.132812 355.863281 C 354.03125 361.980469 346.894531 366.0625 338.734375 366.0625 C 330.574219 367.082031 321.394531 368.101562 313.238281 369.121094 C 312.214844 369.121094 310.175781 371.160156 308.136719 372.179688 L 325.476562 376.261719 C 325.476562 384.417969 313.238281 381.359375 314.257812 390.539062 C 325.476562 387.480469 332.613281 378.300781 343.832031 377.28125 C 355.050781 376.261719 358.113281 366.0625 366.269531 361.980469 C 371.371094 359.941406 375.449219 356.882812 379.53125 354.84375 C 392.789062 344.644531 402.988281 330.367188 420.324219 326.285156 C 422.363281 326.285156 422.363281 324.246094 424.40625 322.207031 L 414.207031 318.125 C 411.144531 319.148438 407.066406 322.207031 405.027344 322.207031 C 399.925781 322.207031 399.925781 327.304688 395.847656 327.304688 C 395.847656 325.265625 396.867188 322.207031 392.789062 323.226562 C 389.726562 321.1875 386.667969 321.1875 384.628906 320.167969 Z M 297.9375 316.085938 C 297.9375 316.085938 296.917969 316.085938 296.917969 316.085938 C 296.917969 316.085938 295.898438 316.085938 295.898438 316.085938 C 294.878906 314.046875 294.878906 310.988281 293.859375 307.929688 L 285.699219 314.046875 L 295.898438 319.148438 C 295.898438 319.148438 296.917969 318.125 297.9375 316.085938 L 307.117188 317.105469 L 307.117188 314.046875 Z M 206.148438 38.675781 L 197.988281 35.617188 L 194.929688 44.796875 C 193.910156 45.816406 190.851562 46.835938 190.851562 47.855469 C 189.828125 52.957031 186.769531 54.996094 182.691406 53.976562 C 178.609375 53.976562 174.53125 49.894531 174.53125 45.816406 C 174.53125 45.816406 174.53125 45.816406 174.53125 44.796875 C 166.371094 43.777344 166.371094 43.777344 165.351562 49.894531 L 174.53125 44.796875 C 172.492188 48.875 170.453125 52.957031 168.414062 58.054688 C 165.351562 69.273438 157.195312 78.453125 145.976562 81.511719 C 145.976562 85.59375 146.996094 90.691406 146.996094 95.789062 C 154.132812 95.789062 152.09375 103.949219 156.171875 109.050781 C 165.351562 101.910156 177.589844 100.890625 188.808594 105.988281 L 182.691406 94.769531 C 183.710938 93.75 185.75 92.730469 187.789062 92.730469 C 195.949219 92.730469 203.089844 94.769531 207.167969 85.59375 C 208.1875 84.570312 209.207031 84.570312 210.226562 83.550781 L 259.183594 71.3125 C 266.320312 54.996094 282.640625 50.914062 295.898438 39.695312 C 296.917969 42.757812 296.917969 45.816406 297.9375 47.855469 C 304.058594 47.855469 311.195312 50.914062 313.238281 41.738281 L 308.136719 39.695312 C 308.136719 46.835938 300.996094 44.796875 297.9375 47.855469 L 302.019531 39.695312 C 291.820312 31.539062 279.582031 34.597656 269.382812 30.519531 C 268.363281 30.519531 267.339844 30.519531 266.320312 30.519531 C 262.242188 31.539062 258.164062 32.558594 254.082031 32.558594 C 250.003906 32.558594 247.964844 31.539062 245.925781 32.558594 C 237.765625 35.617188 229.605469 37.65625 221.445312 36.636719 L 228.585938 28.476562 L 228.585938 26.4375 C 221.445312 30.519531 218.386719 25.417969 215.328125 20.320312 L 215.328125 36.636719 L 202.070312 41.738281 L 206.148438 38.675781 C 206.148438 34.597656 208.1875 31.539062 209.207031 27.457031 L 200.027344 28.476562 C 202.070312 31.539062 203.089844 35.617188 206.148438 38.675781 Z M 106.199219 271.210938 L 98.039062 262.03125 C 98.039062 270.191406 101.097656 271.210938 106.199219 271.210938 L 105.179688 279.371094 L 94.980469 279.371094 C 93.960938 284.46875 103.140625 281.410156 99.058594 287.53125 C 98.039062 289.570312 99.058594 293.648438 98.039062 296.710938 C 97.019531 299.769531 96 299.769531 93.960938 301.808594 L 93.960938 294.667969 L 86.820312 295.6875 L 94.980469 314.046875 L 85.800781 316.085938 C 83.761719 328.324219 81.722656 337.503906 78.660156 347.703125 C 78.660156 348.722656 76.621094 349.742188 75.601562 350.761719 C 71.523438 350.761719 71.523438 352.804688 72.542969 355.863281 C 72.542969 357.902344 72.542969 359.941406 71.523438 361.980469 C 66.421875 368.101562 67.441406 378.300781 73.5625 383.398438 L 64.382812 386.460938 L 65.402344 388.5 L 73.5625 382.378906 C 81.722656 391.558594 91.921875 399.71875 102.121094 405.835938 C 114.359375 410.9375 126.597656 413.996094 138.835938 416.035156 C 150.054688 419.097656 161.273438 420.117188 173.511719 422.15625 C 180.652344 423.175781 188.808594 421.136719 194.929688 416.035156 C 199.007812 412.976562 203.089844 410.9375 207.167969 408.898438 C 218.386719 403.796875 229.605469 396.660156 239.804688 389.519531 C 250.003906 381.359375 263.261719 380.339844 272.441406 371.160156 C 275.5 368.101562 279.582031 367.082031 283.660156 369.121094 C 285.699219 370.140625 289.777344 369.121094 293.859375 368.101562 L 285.699219 361.980469 C 291.820312 357.902344 296.917969 354.84375 303.039062 350.761719 C 314.257812 342.605469 325.476562 334.445312 336.695312 327.304688 C 339.753906 325.265625 347.914062 325.265625 348.933594 323.226562 C 350.972656 316.085938 358.113281 315.066406 361.171875 308.949219 C 372.390625 302.828125 382.589844 294.667969 391.769531 285.492188 C 398.90625 277.332031 406.046875 270.191406 414.207031 263.054688 C 417.265625 259.992188 421.34375 257.953125 424.40625 255.914062 C 426.445312 242.65625 426.445312 241.636719 438.683594 242.65625 L 432.5625 238.574219 C 434.605469 234.496094 435.625 230.417969 437.664062 227.355469 C 438.683594 225.316406 439.703125 224.296875 441.742188 223.277344 C 443.78125 223.277344 444.800781 223.277344 446.84375 223.277344 C 445.824219 221.238281 445.824219 220.21875 445.824219 218.175781 C 445.824219 217.15625 448.882812 214.097656 447.863281 214.097656 C 441.742188 209 445.824219 201.859375 444.800781 195.738281 C 443.78125 182.480469 444.800781 168.203125 437.664062 155.964844 C 433.582031 148.824219 432.5625 140.667969 436.644531 133.527344 C 430.523438 129.445312 423.386719 127.40625 427.464844 119.25 C 427.464844 119.25 425.425781 118.226562 424.40625 117.207031 C 422.363281 115.167969 420.324219 113.128906 419.304688 111.089844 C 416.246094 104.96875 414.207031 97.832031 412.167969 91.710938 L 417.265625 93.75 C 418.285156 90.691406 419.304688 88.652344 421.34375 83.550781 L 412.167969 91.710938 C 408.085938 87.632812 405.027344 83.550781 399.925781 79.472656 C 392.789062 73.351562 384.628906 67.234375 375.449219 64.175781 C 360.152344 59.074219 342.8125 59.074219 330.574219 50.914062 C 319.355469 63.15625 302.019531 65.195312 294.878906 81.511719 C 298.957031 83.550781 303.039062 84.570312 306.097656 85.59375 C 325.476562 89.671875 343.832031 99.871094 357.09375 115.167969 C 358.113281 116.1875 360.152344 116.1875 361.171875 117.207031 C 364.230469 120.269531 367.289062 123.328125 370.351562 126.386719 C 374.429688 128.425781 377.488281 132.507812 377.488281 137.605469 C 384.628906 139.644531 380.550781 143.726562 380.550781 147.804688 C 380.550781 149.84375 384.628906 152.90625 385.648438 151.886719 C 390.75 150.863281 392.789062 154.945312 394.828125 158.003906 C 399.925781 166.164062 404.007812 174.324219 407.066406 182.480469 C 409.105469 190.640625 416.246094 197.78125 409.105469 206.957031 C 411.144531 213.078125 413.1875 219.199219 407.066406 223.277344 C 408.085938 224.296875 409.105469 224.296875 409.105469 225.316406 C 410.125 226.335938 411.144531 228.375 411.144531 229.398438 C 408.085938 236.535156 405.027344 243.675781 402.988281 250.8125 C 404.007812 252.855469 404.007812 253.875 404.007812 255.914062 C 402.988281 261.011719 397.886719 258.972656 393.808594 258.972656 C 397.886719 262.03125 397.886719 268.152344 394.828125 271.210938 C 393.808594 272.230469 392.789062 273.25 390.75 274.273438 C 386.667969 276.3125 385.648438 279.371094 383.609375 283.449219 C 378.507812 290.589844 367.289062 291.609375 366.269531 301.808594 C 358.113281 301.808594 361.171875 307.929688 362.191406 312.007812 C 359.132812 307.929688 356.070312 308.949219 353.011719 312.007812 C 346.894531 319.148438 336.695312 321.1875 327.515625 317.105469 L 315.277344 314.046875 C 316.296875 317.105469 318.335938 320.167969 320.375 323.226562 C 325.476562 329.347656 325.476562 330.367188 319.355469 334.445312 C 313.238281 338.523438 306.097656 339.542969 303.039062 345.664062 C 303.039062 346.683594 302.019531 347.703125 300.996094 347.703125 C 292.839844 343.625 290.800781 351.785156 285.699219 354.84375 C 282.640625 355.863281 280.601562 355.863281 277.539062 355.863281 C 270.402344 352.804688 270.402344 352.804688 267.339844 357.902344 L 277.539062 355.863281 C 270.402344 360.960938 265.300781 369.121094 255.101562 368.101562 C 253.0625 368.101562 251.023438 371.160156 247.964844 372.179688 C 240.824219 376.261719 233.683594 381.359375 226.546875 385.441406 C 225.527344 386.460938 223.484375 386.460938 222.464844 385.441406 C 218.386719 380.339844 215.328125 384.417969 213.289062 386.460938 C 209.207031 392.578125 200.027344 395.636719 192.890625 392.578125 C 190.851562 391.558594 188.808594 391.558594 186.769531 391.558594 C 182.691406 394.617188 179.632812 399.71875 176.570312 399.71875 C 164.332031 400.738281 153.113281 399.71875 141.894531 394.617188 C 138.835938 393.597656 134.753906 393.597656 131.695312 393.597656 C 126.597656 393.597656 120.476562 394.617188 117.417969 387.480469 L 122.515625 382.378906 C 121.496094 381.359375 120.476562 380.339844 119.457031 380.339844 C 117.417969 380.339844 115.378906 380.339844 113.339844 380.339844 C 111.296875 380.339844 108.238281 381.359375 106.199219 381.359375 C 93.960938 375.242188 85.800781 361.980469 87.839844 348.722656 C 89.878906 338.523438 87.839844 328.324219 93.960938 319.148438 C 93.960938 318.125 93.960938 317.105469 92.941406 315.066406 C 94.980469 308.949219 98.039062 302.828125 101.097656 297.730469 C 102.121094 295.6875 105.179688 294.667969 107.21875 293.648438 C 108.238281 290.589844 108.238281 288.550781 109.257812 286.511719 C 111.296875 289.570312 110.277344 296.710938 119.457031 292.628906 L 109.257812 286.511719 C 113.339844 279.371094 117.417969 272.230469 122.515625 266.113281 C 132.714844 252.855469 143.933594 240.617188 153.113281 226.335938 C 156.171875 221.238281 162.292969 219.199219 165.351562 214.097656 C 175.550781 201.859375 183.710938 188.601562 192.890625 175.34375 C 196.96875 171.261719 201.046875 168.203125 205.128906 165.144531 C 206.148438 164.125 209.207031 170.242188 210.226562 165.144531 C 210.226562 164.125 209.207031 161.0625 208.1875 160.042969 C 210.226562 156.984375 219.40625 160.042969 216.347656 151.886719 L 226.546875 150.863281 C 225.527344 147.804688 224.507812 144.746094 223.484375 141.6875 L 272.441406 102.929688 C 268.363281 98.851562 265.300781 98.851562 262.242188 101.910156 C 255.101562 107.007812 248.984375 112.109375 242.863281 118.226562 C 237.765625 124.347656 230.625 128.425781 222.464844 128.425781 C 221.445312 132.507812 220.425781 136.585938 218.386719 138.625 C 216.347656 140.664062 212.265625 138.625 208.1875 138.625 L 209.207031 144.746094 C 204.109375 147.804688 200.027344 151.886719 196.96875 156.984375 C 194.929688 161.0625 188.808594 162.082031 188.808594 163.105469 C 188.808594 169.222656 185.75 170.242188 181.671875 171.261719 C 180.652344 171.261719 179.632812 172.28125 179.632812 173.300781 C 178.609375 182.480469 172.492188 184.519531 164.332031 184.519531 C 163.3125 184.519531 162.292969 185.542969 161.273438 186.5625 L 164.332031 195.738281 L 152.09375 196.761719 L 157.195312 204.917969 C 151.074219 206.957031 143.933594 204.917969 138.835938 200.839844 C 139.855469 211.039062 145.976562 210.019531 152.09375 209 L 145.976562 218.175781 C 140.875 216.136719 136.796875 206.957031 129.65625 214.097656 C 130.675781 219.199219 134.753906 224.296875 139.855469 225.316406 L 135.777344 225.316406 C 137.816406 233.476562 129.65625 236.535156 127.617188 243.675781 L 115.378906 245.714844 L 121.496094 252.855469 L 106.199219 254.894531 C 107.21875 258.972656 108.238281 262.03125 109.257812 264.074219 L 115.378906 261.011719 C 115.378906 269.171875 111.296875 270.191406 106.199219 271.210938 Z M 155.152344 264.074219 C 152.09375 267.132812 146.996094 269.171875 153.113281 274.273438 L 162.292969 267.132812 L 164.332031 273.25 L 153.113281 280.390625 C 153.113281 284.46875 160.253906 286.511719 155.152344 291.609375 C 149.035156 296.710938 144.953125 304.867188 144.953125 313.027344 C 143.933594 316.085938 143.933594 319.148438 141.894531 322.207031 L 131.695312 323.226562 C 139.855469 327.304688 139.855469 327.304688 137.816406 335.464844 C 136.796875 340.566406 136.796875 346.683594 136.796875 351.785156 L 151.074219 358.921875 C 155.152344 355.863281 158.214844 352.804688 161.273438 349.742188 C 166.371094 343.625 171.472656 337.503906 176.570312 330.367188 C 181.671875 323.226562 183.710938 320.167969 186.769531 315.066406 C 191.871094 305.886719 196.96875 294.667969 209.207031 291.609375 C 212.265625 290.589844 215.328125 288.550781 218.386719 287.53125 L 208.1875 287.53125 C 211.246094 282.429688 213.289062 279.371094 215.328125 275.292969 C 217.367188 273.25 218.386719 271.210938 220.425781 269.171875 C 230.625 256.933594 234.703125 240.613281 250.003906 232.457031 C 250.003906 232.457031 251.023438 231.4375 251.023438 230.417969 C 247.964844 223.277344 255.101562 222.257812 257.144531 217.15625 L 268.363281 220.21875 L 258.164062 212.058594 L 276.519531 182.480469 C 267.339844 181.460938 258.164062 183.5 251.023438 189.621094 C 243.882812 195.738281 235.726562 199.820312 227.566406 202.878906 C 220.425781 203.898438 216.347656 211.039062 209.207031 213.078125 C 208.1875 213.078125 207.167969 214.097656 207.167969 215.117188 C 206.148438 226.335938 195.949219 231.4375 189.828125 239.59375 C 186.769531 243.675781 181.671875 245.714844 176.570312 245.714844 C 176.570312 245.714844 175.550781 246.734375 175.550781 247.753906 L 183.710938 250.8125 L 170.453125 263.054688 L 168.414062 262.03125 C 169.433594 258.972656 170.453125 256.933594 171.472656 253.875 L 157.195312 245.714844 C 150.054688 254.894531 149.035156 255.914062 155.152344 264.074219 Z M 50.105469 224.296875 L 52.144531 213.078125 C 49.085938 215.117188 45.003906 218.175781 41.945312 221.238281 C 40.925781 222.257812 40.925781 224.296875 41.945312 225.316406 C 42.964844 226.335938 43.984375 227.355469 46.023438 227.355469 C 47.046875 226.335938 49.085938 225.316406 50.105469 224.296875 C 47.046875 228.375 40.925781 231.4375 43.984375 238.574219 C 43.984375 238.574219 43.984375 239.59375 43.984375 239.59375 C 40.925781 245.714844 38.886719 250.8125 36.847656 256.933594 C 34.804688 258.972656 31.746094 263.054688 37.867188 266.113281 C 39.90625 267.132812 38.886719 275.292969 32.765625 276.3125 C 33.785156 273.25 34.804688 271.210938 35.828125 268.152344 C 31.746094 266.113281 28.6875 264.074219 24.609375 262.03125 C 22.566406 261.011719 19.507812 261.011719 16.449219 262.03125 C 16.449219 262.03125 15.429688 265.09375 15.429688 265.09375 C 17.46875 266.113281 19.507812 267.132812 22.566406 268.152344 L 22.566406 276.3125 L 27.667969 271.210938 L 32.765625 276.3125 C 37.867188 282.429688 33.785156 286.511719 28.6875 289.570312 C 36.847656 297.730469 41.945312 308.949219 41.945312 320.167969 C 41.945312 324.246094 42.964844 328.324219 43.984375 332.40625 C 47.046875 328.324219 48.066406 326.285156 49.085938 324.246094 C 50.105469 322.207031 51.125 320.167969 52.144531 318.125 C 57.246094 304.867188 59.285156 289.570312 71.523438 280.390625 C 72.542969 279.371094 72.542969 278.351562 73.5625 277.332031 C 71.523438 271.210938 78.660156 268.152344 79.683594 264.074219 C 80.703125 257.953125 84.78125 254.894531 87.839844 250.8125 C 91.921875 245.714844 94.980469 240.617188 96 235.515625 C 97.019531 232.457031 98.039062 230.417969 100.078125 228.375 C 102.121094 227.355469 104.160156 226.335938 106.199219 225.316406 C 102.121094 219.199219 109.257812 222.257812 110.277344 220.21875 C 111.296875 218.175781 112.316406 217.15625 112.316406 216.136719 C 115.378906 209 119.457031 202.878906 123.535156 196.761719 L 128.636719 200.839844 C 134.753906 195.738281 128.636719 185.542969 136.796875 180.441406 C 142.914062 175.34375 148.015625 169.222656 154.132812 163.105469 C 159.234375 158.003906 165.351562 152.90625 172.492188 146.785156 C 173.511719 151.886719 173.511719 155.964844 173.511719 159.023438 L 174.53125 159.023438 C 176.570312 153.925781 177.589844 149.84375 179.632812 144.746094 C 181.671875 151.886719 184.730469 153.925781 191.871094 149.84375 L 178.609375 145.765625 L 175.550781 139.644531 C 184.730469 130.46875 196.96875 125.367188 201.046875 112.109375 C 197.988281 112.109375 194.929688 112.109375 194.929688 114.148438 C 191.871094 121.289062 186.769531 122.308594 180.652344 120.269531 C 174.53125 134.546875 159.234375 142.707031 143.933594 140.667969 C 139.855469 142.707031 150.054688 149.84375 139.855469 149.84375 C 139.855469 147.804688 139.855469 145.765625 138.835938 141.6875 L 127.617188 143.726562 L 135.777344 152.90625 C 125.578125 151.886719 127.617188 167.183594 117.417969 164.125 L 111.296875 153.925781 C 108.238281 159.023438 103.140625 164.125 105.179688 165.144531 C 109.257812 171.261719 102.121094 174.324219 100.078125 175.34375 C 93.960938 178.402344 89.878906 186.5625 80.703125 183.5 C 79.683594 183.5 77.640625 185.542969 74.582031 187.582031 L 81.722656 193.699219 C 70.503906 204.917969 70.503906 204.917969 59.285156 205.9375 C 59.285156 209 58.265625 212.058594 57.246094 215.117188 C 56.222656 218.175781 56.222656 224.296875 50.105469 224.296875 Z M 234.703125 292.628906 C 229.605469 301.808594 222.464844 310.988281 215.328125 319.148438 C 209.207031 324.246094 209.207031 330.367188 204.109375 336.484375 C 208.1875 336.484375 211.246094 337.503906 212.265625 336.484375 C 217.367188 333.425781 222.464844 330.367188 228.585938 327.304688 C 234.703125 323.226562 238.785156 317.105469 246.945312 318.125 C 247.964844 318.125 247.964844 315.066406 250.003906 314.046875 C 257.144531 308.949219 263.261719 302.828125 273.460938 305.886719 C 273.460938 293.648438 284.679688 291.609375 291.820312 285.492188 C 298.957031 279.371094 304.058594 276.3125 310.175781 271.210938 C 316.296875 266.113281 323.433594 264.074219 324.457031 254.894531 C 324.457031 253.875 328.535156 252.855469 329.554688 250.8125 L 339.753906 245.714844 L 330.574219 241.636719 C 336.695312 225.316406 333.632812 206.957031 321.394531 194.71875 C 320.375 192.679688 320.375 189.621094 320.375 185.542969 C 307.117188 188.601562 294.878906 192.679688 293.859375 209 C 293.859375 211.039062 292.839844 213.078125 291.820312 214.097656 C 284.679688 222.257812 278.558594 231.4375 273.460938 240.617188 C 272.441406 241.636719 270.402344 242.65625 269.382812 243.675781 C 265.300781 252.855469 253.0625 255.914062 253.0625 268.152344 L 240.824219 269.171875 C 240.824219 273.25 242.863281 278.351562 240.824219 280.390625 C 237.765625 285.492188 232.664062 280.390625 228.585938 278.351562 L 233.683594 286.511719 C 228.585938 287.53125 222.464844 285.492188 221.445312 291.609375 C 226.546875 298.75 228.585938 290.589844 234.703125 292.628906 Z M 387.6875 202.878906 C 385.648438 199.820312 383.609375 197.78125 382.589844 195.738281 C 381.570312 193.699219 382.589844 190.640625 377.488281 190.640625 C 375.449219 189.621094 374.429688 188.601562 373.410156 186.5625 C 371.371094 179.421875 370.351562 172.28125 369.332031 166.164062 C 365.25 162.082031 362.191406 158.003906 359.132812 154.945312 C 363.210938 143.726562 363.210938 143.726562 358.113281 140.664062 L 357.09375 143.726562 L 333.632812 123.328125 C 330.574219 126.386719 326.496094 129.445312 325.476562 132.507812 C 324.457031 140.664062 323.433594 148.824219 323.433594 156.984375 C 324.457031 156.984375 324.457031 158.003906 325.476562 158.003906 C 329.554688 160.042969 332.613281 163.105469 333.632812 167.183594 C 334.65625 169.222656 342.8125 168.203125 344.851562 170.242188 C 350.972656 176.363281 356.070312 181.460938 361.171875 188.601562 L 353.011719 193.699219 C 357.09375 200.839844 367.289062 199.820312 369.332031 207.980469 C 370.351562 215.117188 371.371094 222.257812 372.390625 231.4375 C 379.53125 221.238281 373.410156 206.957031 387.6875 202.878906 Z M 263.261719 138.625 C 267.339844 149.84375 275.5 150.863281 284.679688 150.863281 C 286.71875 150.863281 288.757812 149.84375 290.800781 147.804688 C 293.859375 139.644531 296.917969 130.46875 298.957031 121.289062 C 298.957031 120.269531 296.917969 119.25 294.878906 117.207031 C 293.859375 126.386719 290.800781 131.488281 281.621094 127.40625 C 282.640625 131.488281 282.640625 133.527344 282.640625 135.566406 C 272.441406 141.6875 272.441406 141.6875 263.261719 138.625 Z M 34.804688 360.960938 C 41.945312 367.082031 42.964844 367.082031 47.046875 364.023438 C 50.105469 360.960938 54.183594 360.960938 57.246094 363.003906 C 58.265625 364.023438 60.304688 363.003906 63.363281 363.003906 C 49.085938 353.824219 49.085938 353.824219 34.804688 360.960938 Z M 125.578125 276.3125 C 127.617188 280.390625 131.695312 284.46875 130.675781 286.511719 C 126.597656 294.667969 133.734375 292.628906 134.753906 294.667969 C 135.777344 290.589844 136.796875 286.511719 137.816406 283.449219 Z M 157.195312 114.148438 C 157.195312 116.1875 156.171875 118.226562 156.171875 121.289062 L 148.015625 123.328125 C 159.234375 130.46875 161.273438 124.347656 162.292969 117.207031 L 172.492188 117.207031 L 172.492188 116.1875 Z M 171.472656 32.558594 C 185.75 29.496094 185.75 29.496094 187.789062 25.417969 L 174.53125 26.4375 C 175.550781 22.359375 177.589844 19.300781 171.472656 19.300781 Z M 136.796875 112.109375 C 140.875 113.128906 143.933594 118.226562 148.015625 112.109375 L 140.875 99.871094 Z M 367.289062 252.855469 L 356.070312 265.09375 L 369.332031 266.113281 C 368.3125 261.011719 368.3125 257.953125 367.289062 252.855469 Z M 137.816406 64.175781 C 133.734375 64.175781 129.65625 62.132812 127.617188 64.175781 C 122.515625 68.253906 129.65625 70.292969 130.675781 73.351562 C 135.777344 71.3125 140.875 70.292969 137.816406 64.175781 Z M 96 443.574219 C 84.78125 440.515625 84.78125 440.515625 81.722656 445.613281 Z M 381.570312 47.855469 L 380.550781 49.894531 L 390.75 56.015625 C 390.75 48.875 386.667969 47.855469 381.570312 47.855469 Z M 432.5625 302.828125 C 435.625 310.988281 435.625 310.988281 442.761719 305.886719 C 439.703125 305.886719 437.664062 298.75 432.5625 302.828125 Z M 451.941406 156.984375 C 449.902344 153.925781 448.882812 150.863281 446.84375 147.804688 L 440.722656 159.023438 Z M 377.488281 331.386719 C 377.488281 326.285156 373.410156 325.265625 370.351562 326.285156 C 367.289062 327.304688 367.289062 328.324219 365.25 331.386719 Z M 444.800781 206.957031 C 450.921875 207.980469 455 207.980469 452.960938 201.859375 C 451.941406 199.820312 450.921875 197.78125 449.902344 196.761719 Z M 271.421875 110.070312 C 273.460938 122.308594 281.621094 114.148438 285.699219 117.207031 Z M 446.84375 182.480469 C 452.960938 185.542969 457.042969 189.621094 463.160156 183.5 Z M 483.558594 187.582031 L 485.597656 184.519531 C 483.558594 183.5 480.5 182.480469 478.457031 181.460938 C 478.457031 182.480469 477.4375 183.5 477.4375 184.519531 C 478.457031 185.542969 481.519531 186.5625 483.558594 187.582031 Z M 193.910156 210.019531 C 186.769531 217.15625 186.769531 217.15625 192.890625 221.238281 Z M 203.089844 347.703125 C 197.988281 340.566406 197.988281 340.566406 190.851562 349.742188 Z M 348.933594 40.714844 L 337.714844 48.875 L 350.972656 47.855469 Z M 133.734375 119.25 L 127.617188 112.109375 C 126.597656 115.167969 125.578125 117.207031 124.558594 120.269531 Z M 440.722656 126.386719 C 440.722656 133.527344 443.78125 133.527344 447.863281 132.507812 C 447.863281 132.507812 448.882812 131.488281 449.902344 130.46875 Z M 193.910156 144.746094 C 193.910156 140.667969 193.910156 138.625 192.890625 135.566406 C 191.871094 138.625 184.730469 141.6875 193.910156 144.746094 Z M 120.476562 228.375 C 122.515625 228.375 124.558594 227.355469 125.578125 226.335938 C 127.617188 225.316406 128.636719 224.296875 129.65625 223.277344 C 123.535156 220.21875 121.496094 224.296875 120.476562 228.375 Z M 144.953125 52.957031 C 143.933594 58.054688 143.933594 61.113281 142.914062 66.214844 C 145.976562 62.132812 152.09375 59.074219 144.953125 52.957031 Z M 305.078125 382.378906 L 308.136719 378.300781 C 307.117188 377.28125 305.078125 377.28125 303.039062 377.28125 C 300.996094 377.28125 299.976562 377.28125 297.9375 378.300781 L 297.9375 380.339844 Z M 240.824219 147.804688 C 248.984375 151.886719 248.984375 151.886719 250.003906 145.765625 Z M 179.632812 225.316406 C 183.710938 231.4375 183.710938 231.4375 189.828125 231.4375 Z M 306.097656 137.605469 L 306.097656 140.664062 L 315.277344 139.644531 L 315.277344 137.605469 Z M 220.425781 112.109375 L 221.445312 115.167969 L 226.546875 112.109375 C 226.546875 111.089844 225.527344 109.050781 225.527344 109.050781 C 224.507812 111.089844 222.464844 111.089844 220.425781 112.109375 Z M 386.667969 248.773438 L 384.628906 246.734375 C 383.609375 247.753906 381.570312 249.792969 380.550781 250.8125 C 380.550781 250.8125 381.570312 251.835938 381.570312 251.835938 C 381.570312 251.835938 385.648438 249.792969 386.667969 248.773438 Z M 331.59375 38.675781 L 329.554688 35.617188 C 328.535156 36.636719 327.515625 38.675781 326.496094 39.695312 C 326.496094 39.695312 327.515625 40.714844 328.535156 41.738281 Z M 288.757812 67.234375 L 297.9375 68.253906 C 295.898438 65.195312 292.839844 62.132812 288.757812 67.234375 Z M 212.265625 122.308594 L 213.289062 120.269531 L 206.148438 116.1875 L 205.128906 118.226562 Z M 472.339844 140.664062 C 469.28125 135.566406 467.238281 135.566406 463.160156 140.664062 Z M 172.492188 232.457031 C 174.53125 226.335938 173.511719 223.277344 166.371094 227.355469 Z M 385.648438 170.242188 L 383.609375 170.242188 L 381.570312 175.34375 L 384.628906 175.34375 Z M 253.0625 355.863281 L 251.023438 353.824219 L 246.945312 359.941406 L 248.984375 360.960938 Z M 368.3125 342.605469 L 370.351562 344.644531 L 374.429688 341.585938 L 372.390625 339.542969 Z M 464.179688 254.894531 L 466.21875 254.894531 L 466.21875 249.792969 L 464.179688 249.792969 C 465.199219 251.835938 465.199219 253.875 464.179688 254.894531 Z M 93.960938 97.832031 L 97.019531 97.832031 L 96 90.691406 L 93.960938 90.691406 Z M 290.800781 89.671875 L 287.738281 92.730469 C 288.757812 93.75 289.777344 94.769531 289.777344 94.769531 C 290.800781 94.769531 291.820312 93.75 291.820312 92.730469 C 292.839844 91.710938 291.820312 90.691406 290.800781 89.671875 Z M 365.25 241.636719 L 366.269531 244.695312 L 371.371094 242.65625 C 371.371094 241.636719 371.371094 241.636719 370.351562 240.617188 C 369.332031 240.617188 367.289062 241.636719 365.25 241.636719 Z M 280.601562 189.621094 L 281.621094 192.679688 L 288.757812 190.640625 L 287.738281 188.601562 Z M 105.179688 144.746094 L 104.160156 146.785156 L 111.296875 148.824219 L 111.296875 146.785156 Z M 219.40625 171.261719 L 217.367188 172.28125 C 217.367188 173.300781 217.367188 174.324219 218.386719 175.34375 C 219.40625 176.363281 219.40625 176.363281 220.425781 177.382812 Z M 188.808594 205.9375 L 178.609375 205.9375 C 182.691406 210.019531 185.75 211.039062 188.808594 205.9375 Z M 155.152344 264.074219 C 155.152344 259.992188 153.113281 253.875 160.253906 250.8125 C 161.273438 254.894531 166.371094 256.933594 163.3125 261.011719 C 161.273438 263.054688 157.195312 263.054688 155.152344 264.074219 Z M 155.152344 264.074219 " fill-opacity="1" fill-rule="nonzero"/></g></g></g></g></g></svg>