<svg xmlns="http://www.w3.org/2000/svg" xmlns:xlink="http://www.w3.org/1999/xlink" width="1009" zoomAndPan="magnify" viewBox="0 0 756.75 582" height="776" preserveAspectRatio="xMidYMid meet" version="1.0"><defs><g/><clipPath id="e1c17283b9"><path d="M 671 182 L 691 182 L 691 191.285156 L 671 191.285156 Z M 671 182 " clip-rule="nonzero"/></clipPath></defs><g fill="#fffaf7" fill-opacity="1"><g transform="translate(168.779387, 288.964452)"><g><path d="M 6.898438 -34.21875 C 8.277344 -29.527344 10.488281 -25.113281 12.96875 -20.972656 C 17.109375 -14.074219 23.179688 -8.832031 30.082031 -4.96875 C 35.601562 -2.207031 41.949219 -0.277344 48.019531 0.550781 C 53.261719 1.105469 58.78125 1.105469 64.023438 -0.550781 C 70.648438 -2.207031 75.890625 -6.347656 80.03125 -11.867188 C 81.6875 -13.796875 83.066406 -16.007812 84.171875 -18.488281 C 85.550781 -22.078125 78.097656 -23.179688 76.71875 -19.871094 C 74.789062 -15.453125 71.199219 -11.867188 67.335938 -9.105469 C 66.785156 -8.832031 65.957031 -8.277344 65.40625 -8.003906 C 65.40625 -8.003906 65.128906 -8.003906 65.128906 -7.726562 C 64.578125 -7.453125 63.75 -7.175781 62.921875 -6.898438 C 62.921875 -6.898438 62.644531 -6.898438 62.644531 -6.898438 C 62.09375 -6.625 61.542969 -6.625 61.265625 -6.625 C 60.160156 -6.347656 59.332031 -6.070312 58.230469 -6.070312 C 58.230469 -6.070312 57.953125 -6.070312 57.675781 -6.070312 C 57.125 -6.070312 56.574219 -6.070312 56.023438 -6.070312 C 54.917969 -5.796875 53.539062 -6.070312 52.433594 -6.070312 C 52.433594 -6.070312 52.160156 -6.070312 52.160156 -6.070312 C 52.160156 -6.070312 51.882812 -6.070312 51.605469 -6.070312 C 51.054688 -6.070312 50.777344 -6.347656 50.226562 -6.347656 C 48.847656 -6.625 47.46875 -6.898438 46.363281 -7.175781 C 46.085938 -7.175781 46.085938 -7.175781 45.8125 -7.175781 C 45.8125 -7.453125 45.535156 -7.453125 45.257812 -7.453125 C 44.707031 -7.726562 44.15625 -8.003906 43.601562 -8.003906 C 43.328125 -8.277344 41.949219 -8.832031 41.949219 -8.554688 C 41.671875 -8.832031 41.121094 -9.105469 40.84375 -9.382812 C 39.738281 -10.210938 38.636719 -11.039062 37.53125 -11.867188 C 37.257812 -12.144531 36.152344 -13.246094 36.429688 -12.96875 C 35.875 -13.246094 35.324219 -13.796875 35.046875 -14.351562 C 33.945312 -15.179688 33.117188 -16.28125 32.289062 -17.386719 C 32.011719 -18.214844 31.460938 -18.765625 30.910156 -19.316406 C 30.910156 -19.59375 30.910156 -19.871094 30.632812 -19.871094 C 30.355469 -20.421875 30.082031 -20.972656 30.082031 -21.25 C 28.425781 -24.285156 27.046875 -27.597656 25.941406 -30.910156 C 25.390625 -32.839844 24.835938 -34.773438 24.285156 -36.703125 C 24.285156 -37.257812 24.285156 -37.808594 24.007812 -38.359375 C 24.007812 -38.636719 24.007812 -38.636719 24.007812 -38.636719 C 24.007812 -38.910156 24.007812 -38.910156 24.007812 -39.1875 C 23.734375 -40.566406 23.457031 -41.949219 23.179688 -43.601562 C 21.800781 -54.089844 21.25 -64.300781 22.078125 -75.0625 C 22.355469 -77.546875 22.628906 -80.308594 23.179688 -82.789062 C 23.179688 -82.789062 23.457031 -83.894531 23.457031 -84.171875 C 23.457031 -84.445312 23.457031 -85 23.734375 -85.550781 C 24.007812 -86.929688 24.285156 -88.308594 24.835938 -89.964844 C 25.941406 -94.382812 27.320312 -98.796875 29.253906 -103.210938 C 29.804688 -104.039062 30.082031 -105.144531 30.910156 -105.972656 C 30.632812 -105.972656 30.632812 -105.972656 30.632812 -105.972656 C 30.910156 -105.972656 30.910156 -105.972656 30.910156 -105.972656 C 31.183594 -106.523438 31.460938 -107.078125 31.738281 -107.351562 C 32.839844 -109.007812 34.21875 -110.664062 35.601562 -112.320312 C 35.875 -112.597656 36.152344 -112.871094 36.703125 -113.421875 C 37.53125 -114.25 38.359375 -114.804688 39.1875 -115.355469 C 40.015625 -116.183594 40.84375 -116.734375 41.949219 -117.289062 C 42.5 -117.839844 43.050781 -118.113281 43.601562 -118.390625 C 43.601562 -118.390625 43.601562 -118.390625 43.878906 -118.390625 C 43.878906 -118.667969 44.15625 -118.667969 44.429688 -118.941406 C 45.535156 -119.496094 46.640625 -119.769531 47.742188 -120.324219 C 48.019531 -120.324219 48.019531 -120.324219 48.019531 -120.324219 C 48.019531 -120.324219 48.019531 -120.324219 48.292969 -120.324219 C 49.121094 -120.597656 49.949219 -120.597656 50.503906 -120.875 C 51.605469 -121.152344 52.710938 -121.425781 54.089844 -121.425781 C 54.367188 -121.425781 54.640625 -121.425781 54.917969 -121.425781 C 55.746094 -121.425781 56.574219 -121.425781 57.125 -121.425781 C 57.675781 -121.425781 58.230469 -121.425781 58.503906 -121.425781 C 58.230469 -121.425781 59.886719 -121.425781 60.160156 -121.152344 C 61.542969 -121.152344 62.644531 -120.875 63.75 -120.324219 C 65.679688 -119.769531 68.441406 -118.667969 70.371094 -117.289062 C 79.480469 -111.492188 84.445312 -100.730469 83.894531 -89.964844 C 83.894531 -88.308594 87.207031 -88.308594 87.484375 -89.964844 C 88.863281 -99.902344 85.550781 -110.386719 79.203125 -117.839844 C 75.890625 -121.980469 71.476562 -125.566406 66.785156 -127.773438 C 64.300781 -129.152344 61.542969 -130.257812 59.058594 -131.085938 C 57.675781 -131.363281 56.574219 -131.636719 55.46875 -131.636719 C 54.917969 -131.914062 54.367188 -131.914062 53.8125 -131.914062 C 52.984375 -132.191406 52.160156 -132.191406 51.332031 -132.191406 C 49.121094 -132.464844 54.089844 -131.914062 50.777344 -132.191406 C 47.191406 -132.464844 43.601562 -131.914062 40.292969 -131.085938 C 36.429688 -130.257812 33.117188 -128.878906 29.527344 -126.945312 C 25.113281 -124.460938 20.972656 -120.875 17.660156 -116.734375 C 10.761719 -108.730469 7.453125 -98.246094 5.519531 -88.035156 C 3.035156 -76.167969 2.207031 -64.023438 3.585938 -51.882812 C 4.140625 -45.8125 5.242188 -40.015625 6.898438 -34.21875 Z M 6.898438 -34.21875 "/></g></g></g><g fill="#fffaf7" fill-opacity="1"><g transform="translate(257.917519, 288.964452)"><g><path d="M 21.527344 -9.105469 C 32.5625 -1.105469 46.914062 1.65625 60.4375 -1.105469 C 66.785156 -2.207031 73.132812 -4.96875 78.652344 -8.832031 C 84.171875 -12.695312 88.308594 -17.660156 91.621094 -23.457031 C 97.96875 -34.21875 99.347656 -46.640625 99.902344 -58.78125 C 100.175781 -71.476562 98.246094 -84.445312 93.554688 -96.3125 C 89.414062 -107.078125 83.066406 -117.839844 73.40625 -124.738281 C 64.851562 -130.808594 54.089844 -134.121094 43.328125 -131.914062 C 33.117188 -129.707031 24.007812 -122.804688 18.488281 -113.976562 C 11.867188 -104.316406 9.105469 -92.449219 7.726562 -80.859375 C 7.453125 -78.097656 7.175781 -75.0625 6.898438 -72.027344 C 6.625 -70.925781 8.277344 -70.371094 9.382812 -70.648438 C 6.625 -66.507812 4.414062 -61.816406 3.585938 -57.125 C 2.207031 -51.332031 1.65625 -45.257812 2.757812 -39.1875 C 3.863281 -32.5625 5.796875 -26.769531 9.382812 -21.25 C 12.695312 -16.558594 16.835938 -12.144531 21.527344 -9.105469 Z M 11.589844 -73.683594 C 11.589844 -73.683594 11.589844 -73.40625 11.589844 -73.40625 C 13.246094 -84.722656 15.179688 -96.589844 20.421875 -106.800781 C 25.113281 -115.90625 33.117188 -124.1875 43.050781 -126.945312 C 47.742188 -128.050781 52.160156 -127.773438 56.574219 -126.117188 C 60.988281 -124.1875 64.300781 -121.152344 67.0625 -117.5625 C 70.371094 -113.699219 72.027344 -109.558594 73.683594 -104.59375 C 74.789062 -101.832031 75.339844 -98.796875 75.890625 -96.039062 C 75.890625 -96.039062 75.890625 -96.039062 75.890625 -95.761719 C 75.890625 -95.484375 76.167969 -95.210938 76.167969 -94.933594 C 76.167969 -94.105469 76.445312 -93.277344 76.445312 -92.726562 C 76.71875 -91.070312 76.71875 -89.691406 76.996094 -88.308594 C 78.375 -74.511719 77.273438 -60.988281 75.0625 -47.46875 C 73.683594 -41.394531 72.027344 -35.046875 68.992188 -29.527344 C 67.335938 -27.046875 65.679688 -25.113281 64.023438 -23.179688 C 64.023438 -23.179688 64.023438 -23.179688 63.75 -22.90625 C 63.195312 -22.628906 62.644531 -22.078125 62.09375 -21.527344 C 61.542969 -21.25 60.988281 -20.699219 60.4375 -20.421875 C 60.160156 -20.421875 60.160156 -20.421875 60.160156 -20.144531 C 59.058594 -19.871094 57.953125 -19.316406 56.574219 -18.765625 C 56.851562 -18.765625 56.574219 -18.765625 56.574219 -18.765625 C 56.574219 -18.765625 56.296875 -18.488281 56.296875 -18.488281 C 55.746094 -18.488281 55.195312 -18.214844 54.640625 -17.9375 C 55.195312 -18.214844 55.746094 -18.214844 56.023438 -18.488281 C 55.46875 -18.214844 55.195312 -18.214844 54.917969 -18.214844 C 54.089844 -17.9375 53.261719 -17.9375 52.433594 -17.660156 C 53.539062 -17.9375 52.710938 -17.660156 51.882812 -17.660156 C 51.332031 -17.660156 51.054688 -17.386719 50.503906 -17.386719 C 51.054688 -17.386719 51.605469 -17.660156 51.882812 -17.660156 C 51.605469 -17.660156 51.332031 -17.660156 51.054688 -17.660156 C 50.226562 -17.660156 49.675781 -17.660156 48.847656 -17.660156 C 48.847656 -17.660156 48.570312 -17.660156 48.570312 -17.660156 C 48.019531 -17.660156 47.742188 -17.660156 47.191406 -17.660156 C 46.363281 -17.9375 45.8125 -17.9375 44.984375 -18.214844 C 43.878906 -18.765625 42.773438 -19.042969 41.949219 -19.59375 C 41.671875 -19.59375 41.394531 -19.871094 40.84375 -20.144531 C 41.121094 -19.871094 41.394531 -19.59375 41.949219 -19.316406 C 41.394531 -19.871094 40.84375 -20.144531 40.015625 -20.421875 C 38.910156 -21.25 37.808594 -22.078125 36.703125 -23.179688 C 36.429688 -23.179688 36.152344 -23.457031 36.152344 -23.734375 C 36.152344 -23.457031 36.429688 -23.457031 36.429688 -23.179688 C 36.152344 -23.734375 35.601562 -24.007812 35.046875 -24.5625 C 33.390625 -26.492188 32.011719 -28.425781 30.632812 -30.355469 C 28.976562 -33.390625 27.597656 -36.703125 27.046875 -40.292969 C 26.21875 -44.429688 26.492188 -48.570312 27.046875 -52.433594 C 27.871094 -57.125 29.527344 -61.265625 31.738281 -65.40625 C 32.839844 -67.335938 33.667969 -69.269531 32.5625 -71.753906 C 32.011719 -73.960938 29.527344 -75.890625 27.320312 -76.71875 C 22.628906 -78.375 15.179688 -78.097656 11.589844 -73.683594 Z M 11.589844 -73.683594 "/></g></g></g><g fill="#fffaf7" fill-opacity="1"><g transform="translate(360.85413, 288.964452)"><g><path d="M 6.070312 -8.554688 C 5.796875 -6.347656 7.726562 -3.863281 9.382812 -2.484375 C 11.867188 -0.828125 15.179688 0.277344 18.214844 0 C 23.457031 0 30.082031 -2.484375 30.355469 -8.554688 C 30.632812 -14.625 30.910156 -20.421875 31.183594 -26.21875 C 32.839844 -41.121094 33.390625 -56.296875 34.21875 -71.199219 C 35.046875 -82.238281 36.152344 -93.277344 38.359375 -104.316406 C 39.1875 -109.285156 40.566406 -114.25 43.328125 -118.667969 C 44.429688 -120.597656 45.8125 -122.253906 47.46875 -123.632812 C 48.019531 -124.1875 48.847656 -124.460938 49.398438 -124.738281 C 49.949219 -125.015625 50.503906 -125.289062 51.054688 -125.289062 C 50.777344 -125.289062 51.605469 -125.566406 51.882812 -125.566406 C 52.160156 -125.566406 52.710938 -125.566406 52.710938 -125.566406 C 52.984375 -125.566406 53.8125 -125.289062 52.984375 -125.566406 C 54.367188 -125.015625 54.089844 -125.015625 54.917969 -124.460938 C 56.296875 -123.632812 57.675781 -122.253906 57.953125 -121.152344 C 58.503906 -120.046875 58.78125 -118.941406 59.058594 -118.113281 C 59.609375 -117.011719 59.886719 -115.90625 60.160156 -114.804688 C 60.4375 -113.148438 60.714844 -110.386719 60.988281 -108.179688 C 60.988281 -102.9375 60.4375 -97.96875 60.160156 -93 C 59.886719 -90.242188 59.609375 -87.757812 59.609375 -85.273438 C 58.503906 -70.925781 57.953125 -56.851562 57.675781 -42.5 C 57.675781 -35.324219 57.953125 -27.871094 57.953125 -20.699219 C 58.230469 -15.730469 58.230469 -11.039062 59.332031 -6.070312 C 59.609375 -3.863281 62.921875 -1.65625 64.851562 -0.828125 C 67.613281 0.277344 71.476562 0.828125 74.234375 0 C 76.996094 -0.550781 80.03125 -1.65625 81.6875 -4.140625 C 81.6875 -4.140625 81.6875 -4.140625 81.964844 -4.414062 C 82.238281 -4.691406 82.238281 -4.96875 82.515625 -5.519531 C 82.515625 -5.519531 82.789062 -5.796875 82.789062 -6.070312 C 83.066406 -6.347656 83.066406 -6.625 83.066406 -6.625 C 85 -11.039062 85.550781 -15.730469 86.101562 -20.144531 C 86.929688 -28.976562 87.484375 -37.53125 88.035156 -46.085938 C 88.308594 -56.296875 88.863281 -66.234375 89.691406 -76.167969 C 90.242188 -85.550781 91.070312 -95.484375 93.554688 -104.59375 C 94.65625 -109.835938 96.589844 -115.632812 99.625 -120.046875 C 101.003906 -121.980469 102.9375 -123.910156 105.144531 -124.738281 C 105.421875 -125.015625 105.972656 -125.289062 106.523438 -125.289062 C 106.523438 -125.289062 107.351562 -125.566406 107.351562 -125.566406 C 107.628906 -125.566406 108.179688 -125.566406 108.179688 -125.566406 C 108.457031 -125.566406 108.730469 -125.566406 109.007812 -125.289062 C 109.285156 -125.289062 109.558594 -125.015625 109.835938 -125.015625 C 110.386719 -124.738281 110.941406 -124.460938 111.214844 -123.910156 C 111.769531 -123.632812 111.492188 -123.910156 111.769531 -123.359375 C 112.320312 -122.804688 112.871094 -122.253906 113.148438 -121.703125 C 114.25 -120.324219 115.078125 -117.5625 115.632812 -115.355469 C 115.90625 -113.976562 115.90625 -113.699219 116.183594 -112.042969 C 116.460938 -110.386719 116.460938 -109.007812 116.460938 -107.351562 C 116.460938 -104.316406 116.460938 -101.28125 116.183594 -98.246094 C 114.804688 -82.515625 113.976562 -66.785156 113.421875 -50.777344 C 113.421875 -42.773438 113.421875 -34.773438 113.421875 -26.492188 C 113.421875 -21.25 113.421875 -15.730469 113.976562 -10.210938 C 114.25 -8.832031 114.527344 -7.453125 114.804688 -6.070312 C 115.355469 -3.863281 118.390625 -1.65625 120.324219 -0.828125 C 123.082031 0.277344 126.945312 0.828125 129.980469 0 C 132.464844 -0.550781 135.5 -1.65625 137.15625 -4.140625 C 137.710938 -4.691406 137.984375 -5.519531 138.535156 -6.070312 C 139.089844 -7.726562 139.089844 -9.105469 138.535156 -10.488281 C 137.984375 -14.625 138.261719 -18.765625 137.984375 -22.90625 C 137.984375 -30.910156 137.984375 -39.1875 137.710938 -47.191406 C 137.15625 -63.195312 137.15625 -79.203125 135.226562 -95.210938 C 134.671875 -101.832031 133.570312 -108.730469 131.085938 -115.078125 C 129.707031 -117.839844 128.324219 -121.152344 126.117188 -123.359375 C 124.1875 -125.289062 122.253906 -127.222656 119.496094 -129.152344 C 114.527344 -132.191406 108.179688 -133.570312 102.660156 -131.085938 C 97.417969 -128.878906 93.828125 -124.1875 91.347656 -119.21875 C 86.65625 -109.558594 85.828125 -98.519531 85 -88.035156 C 84.445312 -77.824219 83.894531 -67.613281 83.34375 -57.402344 C 83.066406 -49.675781 82.789062 -42.222656 82.238281 -34.496094 C 82.238281 -36.429688 82.238281 -38.359375 82.238281 -40.015625 C 82.238281 -54.917969 81.6875 -69.820312 80.582031 -84.445312 C 80.03125 -92.726562 79.480469 -101.003906 77.273438 -109.007812 C 76.71875 -111.769531 75.617188 -114.527344 74.511719 -117.289062 C 73.960938 -118.390625 73.132812 -119.769531 72.304688 -120.875 C 71.476562 -122.253906 70.371094 -123.359375 69.542969 -124.1875 C 66.234375 -127.222656 62.371094 -130.808594 57.125 -131.914062 C 46.363281 -134.398438 38.082031 -125.84375 34.773438 -116.460938 C 32.839844 -111.214844 32.011719 -105.695312 31.183594 -100.453125 C 31.183594 -98.796875 30.910156 -97.417969 30.632812 -96.039062 C 30.632812 -96.867188 30.632812 -97.96875 30.632812 -98.796875 C 30.082031 -107.351562 29.527344 -115.90625 28.425781 -124.460938 C 27.871094 -129.707031 22.355469 -132.464844 17.386719 -132.464844 C 12.96875 -132.191406 6.347656 -129.980469 6.347656 -124.460938 C 6.625 -94.382812 7.726562 -64.300781 6.898438 -34.21875 C 6.625 -25.664062 6.347656 -17.109375 6.070312 -8.554688 Z M 109.835938 -125.015625 C 109.835938 -125.015625 109.558594 -125.289062 109.835938 -125.015625 Z M 108.730469 -125.289062 C 108.457031 -125.566406 108.730469 -125.566406 108.730469 -125.289062 Z M 108.730469 -125.289062 "/></g></g></g><g fill="#fffaf7" fill-opacity="1"><g transform="translate(504.634228, 288.964452)"><g><path d="M 6.070312 -8.554688 C 5.796875 -6.347656 7.726562 -3.863281 9.382812 -2.484375 C 11.867188 -0.828125 15.179688 0.277344 18.214844 0 C 23.457031 0 30.082031 -2.484375 30.355469 -8.554688 C 30.632812 -14.625 30.910156 -20.421875 31.183594 -26.21875 C 32.839844 -41.121094 33.390625 -56.296875 34.21875 -71.199219 C 35.046875 -82.238281 36.152344 -93.277344 38.359375 -104.316406 C 39.1875 -109.285156 40.566406 -114.25 43.328125 -118.667969 C 44.429688 -120.597656 45.8125 -122.253906 47.46875 -123.632812 C 48.019531 -124.1875 48.847656 -124.460938 49.398438 -124.738281 C 49.949219 -125.015625 50.503906 -125.289062 51.054688 -125.289062 C 50.777344 -125.289062 51.605469 -125.566406 51.882812 -125.566406 C 52.160156 -125.566406 52.710938 -125.566406 52.710938 -125.566406 C 52.984375 -125.566406 53.8125 -125.289062 52.984375 -125.566406 C 54.367188 -125.015625 54.089844 -125.015625 54.917969 -124.460938 C 56.296875 -123.632812 57.675781 -122.253906 57.953125 -121.152344 C 58.503906 -120.046875 58.78125 -118.941406 59.058594 -118.113281 C 59.609375 -117.011719 59.886719 -115.90625 60.160156 -114.804688 C 60.4375 -113.148438 60.714844 -110.386719 60.988281 -108.179688 C 60.988281 -102.9375 60.4375 -97.96875 60.160156 -93 C 59.886719 -90.242188 59.609375 -87.757812 59.609375 -85.273438 C 58.503906 -70.925781 57.953125 -56.851562 57.675781 -42.5 C 57.675781 -35.324219 57.953125 -27.871094 57.953125 -20.699219 C 58.230469 -15.730469 58.230469 -11.039062 59.332031 -6.070312 C 59.609375 -3.863281 62.921875 -1.65625 64.851562 -0.828125 C 67.613281 0.277344 71.476562 0.828125 74.234375 0 C 76.996094 -0.550781 80.03125 -1.65625 81.6875 -4.140625 C 81.6875 -4.140625 81.6875 -4.140625 81.964844 -4.414062 C 82.238281 -4.691406 82.238281 -4.96875 82.515625 -5.519531 C 82.515625 -5.519531 82.789062 -5.796875 82.789062 -6.070312 C 83.066406 -6.347656 83.066406 -6.625 83.066406 -6.625 C 85 -11.039062 85.550781 -15.730469 86.101562 -20.144531 C 86.929688 -28.976562 87.484375 -37.53125 88.035156 -46.085938 C 88.308594 -56.296875 88.863281 -66.234375 89.691406 -76.167969 C 90.242188 -85.550781 91.070312 -95.484375 93.554688 -104.59375 C 94.65625 -109.835938 96.589844 -115.632812 99.625 -120.046875 C 101.003906 -121.980469 102.9375 -123.910156 105.144531 -124.738281 C 105.421875 -125.015625 105.972656 -125.289062 106.523438 -125.289062 C 106.523438 -125.289062 107.351562 -125.566406 107.351562 -125.566406 C 107.628906 -125.566406 108.179688 -125.566406 108.179688 -125.566406 C 108.457031 -125.566406 108.730469 -125.566406 109.007812 -125.289062 C 109.285156 -125.289062 109.558594 -125.015625 109.835938 -125.015625 C 110.386719 -124.738281 110.941406 -124.460938 111.214844 -123.910156 C 111.769531 -123.632812 111.492188 -123.910156 111.769531 -123.359375 C 112.320312 -122.804688 112.871094 -122.253906 113.148438 -121.703125 C 114.25 -120.324219 115.078125 -117.5625 115.632812 -115.355469 C 115.90625 -113.976562 115.90625 -113.699219 116.183594 -112.042969 C 116.460938 -110.386719 116.460938 -109.007812 116.460938 -107.351562 C 116.460938 -104.316406 116.460938 -101.28125 116.183594 -98.246094 C 114.804688 -82.515625 113.976562 -66.785156 113.421875 -50.777344 C 113.421875 -42.773438 113.421875 -34.773438 113.421875 -26.492188 C 113.421875 -21.25 113.421875 -15.730469 113.976562 -10.210938 C 114.25 -8.832031 114.527344 -7.453125 114.804688 -6.070312 C 115.355469 -3.863281 118.390625 -1.65625 120.324219 -0.828125 C 123.082031 0.277344 126.945312 0.828125 129.980469 0 C 132.464844 -0.550781 135.5 -1.65625 137.15625 -4.140625 C 137.710938 -4.691406 137.984375 -5.519531 138.535156 -6.070312 C 139.089844 -7.726562 139.089844 -9.105469 138.535156 -10.488281 C 137.984375 -14.625 138.261719 -18.765625 137.984375 -22.90625 C 137.984375 -30.910156 137.984375 -39.1875 137.710938 -47.191406 C 137.15625 -63.195312 137.15625 -79.203125 135.226562 -95.210938 C 134.671875 -101.832031 133.570312 -108.730469 131.085938 -115.078125 C 129.707031 -117.839844 128.324219 -121.152344 126.117188 -123.359375 C 124.1875 -125.289062 122.253906 -127.222656 119.496094 -129.152344 C 114.527344 -132.191406 108.179688 -133.570312 102.660156 -131.085938 C 97.417969 -128.878906 93.828125 -124.1875 91.347656 -119.21875 C 86.65625 -109.558594 85.828125 -98.519531 85 -88.035156 C 84.445312 -77.824219 83.894531 -67.613281 83.34375 -57.402344 C 83.066406 -49.675781 82.789062 -42.222656 82.238281 -34.496094 C 82.238281 -36.429688 82.238281 -38.359375 82.238281 -40.015625 C 82.238281 -54.917969 81.6875 -69.820312 80.582031 -84.445312 C 80.03125 -92.726562 79.480469 -101.003906 77.273438 -109.007812 C 76.71875 -111.769531 75.617188 -114.527344 74.511719 -117.289062 C 73.960938 -118.390625 73.132812 -119.769531 72.304688 -120.875 C 71.476562 -122.253906 70.371094 -123.359375 69.542969 -124.1875 C 66.234375 -127.222656 62.371094 -130.808594 57.125 -131.914062 C 46.363281 -134.398438 38.082031 -125.84375 34.773438 -116.460938 C 32.839844 -111.214844 32.011719 -105.695312 31.183594 -100.453125 C 31.183594 -98.796875 30.910156 -97.417969 30.632812 -96.039062 C 30.632812 -96.867188 30.632812 -97.96875 30.632812 -98.796875 C 30.082031 -107.351562 29.527344 -115.90625 28.425781 -124.460938 C 27.871094 -129.707031 22.355469 -132.464844 17.386719 -132.464844 C 12.96875 -132.191406 6.347656 -129.980469 6.347656 -124.460938 C 6.625 -94.382812 7.726562 -64.300781 6.898438 -34.21875 C 6.625 -25.664062 6.347656 -17.109375 6.070312 -8.554688 Z M 109.835938 -125.015625 C 109.835938 -125.015625 109.558594 -125.289062 109.835938 -125.015625 Z M 108.730469 -125.289062 C 108.457031 -125.566406 108.730469 -125.566406 108.730469 -125.289062 Z M 108.730469 -125.289062 "/></g></g></g><g fill="#fffaf7" fill-opacity="1"><g transform="translate(174.193227, 429.657393)"><g><path d="M 99.328125 -0.828125 C 99.601562 -0.828125 99.601562 -0.550781 99.601562 -0.550781 C 99.878906 -0.550781 99.878906 -0.550781 99.878906 -0.550781 C 100.707031 -0.277344 101.808594 0 102.636719 0 C 102.914062 0 103.464844 0 103.742188 0 C 108.433594 0.277344 113.121094 -0.828125 116.984375 -3.035156 C 122.503906 -6.347656 126.089844 -11.3125 129.125 -16.832031 C 134.644531 -26.761719 138.230469 -37.800781 140.714844 -48.835938 C 142.644531 -56.5625 144.023438 -64.285156 145.679688 -72.289062 C 147.335938 -81.117188 149.265625 -89.945312 149.820312 -99.050781 C 149.820312 -103.464844 149.820312 -107.878906 148.992188 -112.019531 C 148.4375 -116.15625 147.335938 -120.570312 145.402344 -124.160156 C 141.265625 -131.058594 132.710938 -134.644531 125.539062 -129.675781 C 118.363281 -124.988281 115.605469 -116.15625 114.226562 -107.878906 C 112.570312 -97.394531 113.121094 -86.910156 114.777344 -76.425781 C 116.15625 -65.941406 118.363281 -55.734375 121.125 -45.523438 C 122.226562 -41.664062 123.332031 -37.800781 124.710938 -34.210938 C 124.988281 -32.832031 125.539062 -31.175781 126.089844 -29.796875 C 126.089844 -29.796875 126.089844 -29.523438 126.367188 -29.246094 C 124.433594 -25.382812 122.503906 -21.519531 120.019531 -17.933594 C 118.917969 -16.554688 117.8125 -15.175781 116.710938 -13.796875 C 115.882812 -12.96875 115.054688 -12.140625 113.949219 -11.3125 C 113.675781 -11.3125 112.847656 -11.035156 112.570312 -10.761719 C 112.292969 -10.761719 112.019531 -10.484375 111.742188 -10.484375 C 111.742188 -10.484375 111.191406 -10.207031 110.914062 -10.207031 C 110.640625 -10.207031 110.363281 -10.207031 110.085938 -9.933594 C 109.8125 -9.933594 109.8125 -9.933594 109.535156 -9.933594 C 109.261719 -9.933594 109.261719 -9.933594 108.984375 -9.933594 C 108.984375 -9.933594 108.707031 -9.933594 108.433594 -9.933594 C 108.15625 -9.933594 107.878906 -9.933594 107.878906 -9.933594 C 107.605469 -10.207031 107.605469 -10.207031 107.605469 -10.207031 C 107.328125 -10.207031 107.328125 -10.207031 107.050781 -10.484375 C 106.777344 -10.484375 106.777344 -10.484375 106.777344 -10.761719 C 106.5 -11.035156 106.226562 -11.3125 105.949219 -11.589844 C 105.398438 -12.140625 105.121094 -12.691406 104.570312 -13.242188 C 104.292969 -13.519531 104.292969 -14.070312 104.019531 -14.347656 C 102.636719 -17.382812 101.535156 -20.417969 100.707031 -23.453125 C 100.984375 -22.902344 100.984375 -22.074219 101.257812 -21.519531 C 100.15625 -26.488281 98.773438 -31.175781 97.949219 -36.144531 C 97.121094 -40.558594 96.015625 -44.972656 95.1875 -49.386719 C 90.773438 -73.667969 88.84375 -98.5 88.84375 -123.054688 C 89.117188 -128.847656 81.667969 -132.160156 76.703125 -131.882812 C 71.734375 -131.882812 64.5625 -129.125 64.285156 -123.054688 C 64.285156 -120.296875 64.285156 -117.8125 64.5625 -115.054688 C 64.285156 -113.398438 64.285156 -112.019531 64.011719 -110.640625 C 63.734375 -105.121094 63.460938 -99.328125 63.183594 -93.53125 C 62.632812 -82.222656 61.804688 -70.910156 60.976562 -59.320312 C 60.148438 -48.558594 59.320312 -37.523438 56.835938 -26.761719 C 56.007812 -22.347656 54.90625 -17.382812 52.148438 -13.519531 C 51.59375 -12.691406 51.042969 -11.589844 50.214844 -11.035156 C 49.113281 -10.207031 48.835938 -10.207031 47.730469 -9.65625 C 47.457031 -9.65625 47.457031 -9.382812 47.179688 -9.382812 C 46.90625 -9.382812 46.351562 -9.382812 46.078125 -9.382812 C 45.800781 -9.382812 45.523438 -9.382812 45.25 -9.382812 C 44.972656 -9.382812 44.695312 -9.382812 44.695312 -9.382812 C 44.695312 -9.382812 44.421875 -9.382812 44.144531 -9.65625 C 43.59375 -9.65625 43.042969 -9.933594 42.765625 -10.207031 C 42.488281 -10.207031 42.488281 -10.207031 42.488281 -10.207031 C 42.488281 -10.207031 42.214844 -10.484375 42.214844 -10.484375 C 41.664062 -10.761719 41.109375 -11.035156 40.558594 -11.3125 C 40.558594 -11.589844 40.28125 -11.863281 40.007812 -11.863281 C 40.007812 -11.863281 39.730469 -12.140625 39.730469 -12.414062 C 39.453125 -12.691406 39.179688 -12.691406 38.902344 -12.96875 C 38.351562 -14.070312 37.523438 -14.898438 36.972656 -15.726562 C 37.246094 -15.449219 36.421875 -16.832031 36.421875 -17.105469 C 36.144531 -17.65625 35.867188 -18.210938 35.59375 -19.039062 C 35.039062 -20.140625 34.488281 -21.519531 34.210938 -22.902344 C 33.386719 -25.382812 32.558594 -27.867188 32.28125 -30.351562 C 31.730469 -32.558594 31.453125 -34.765625 30.902344 -36.695312 C 31.175781 -36.144531 31.175781 -35.316406 31.453125 -34.765625 C 29.246094 -45.800781 28.695312 -57.390625 28.417969 -68.703125 C 28.144531 -80.289062 28.96875 -91.878906 30.074219 -103.464844 C 30.625 -110.085938 31.175781 -116.710938 32.003906 -123.332031 C 32.28125 -125.8125 30.074219 -128.296875 28.417969 -129.675781 C 25.933594 -131.332031 22.347656 -132.160156 19.589844 -132.160156 C 14.070312 -131.882812 8 -129.402344 7.449219 -123.332031 C 5.519531 -104.570312 3.585938 -85.808594 4.136719 -67.046875 C 4.414062 -57.113281 5.792969 -47.179688 8 -37.523438 C 9.933594 -28.695312 12.96875 -19.867188 18.484375 -12.691406 C 24.554688 -4.964844 32.832031 0 42.765625 0.277344 C 47.179688 0.277344 51.871094 -0.828125 55.457031 -3.585938 C 58.492188 -5.792969 60.976562 -9.382812 62.632812 -13.242188 C 64.011719 -16.832031 64.839844 -20.96875 65.667969 -24.554688 C 66.492188 -28.96875 67.320312 -33.109375 67.875 -37.246094 C 68.703125 -43.871094 68.976562 -50.765625 69.253906 -57.664062 C 70.632812 -49.113281 72.011719 -40.558594 74.21875 -32.28125 C 75.046875 -30.074219 75.597656 -27.867188 76.425781 -25.933594 C 77.253906 -22.902344 78.359375 -20.417969 80.011719 -17.933594 C 82.773438 -13.519531 85.253906 -9.65625 89.117188 -6.347656 C 91.050781 -4.691406 92.980469 -3.3125 95.1875 -2.207031 C 96.566406 -1.65625 97.949219 -1.105469 99.328125 -0.828125 Z M 124.710938 -55.457031 C 122.78125 -63.734375 121.125 -71.734375 120.019531 -80.011719 C 119.191406 -88.015625 118.363281 -96.292969 119.191406 -104.570312 C 119.46875 -110.914062 121.125 -117.8125 124.988281 -123.054688 C 126.640625 -125.261719 129.402344 -128.296875 132.160156 -128.023438 C 135.195312 -128.023438 137.402344 -125.539062 138.78125 -123.332031 C 140.4375 -120.570312 141.265625 -117.539062 142.09375 -114.503906 C 145.128906 -100.707031 141.816406 -86.636719 139.058594 -73.117188 C 136.851562 -61.804688 134.089844 -50.492188 130.230469 -39.730469 C 129.953125 -38.902344 129.675781 -38.074219 129.402344 -37.523438 C 127.746094 -43.316406 126.089844 -49.386719 124.710938 -55.457031 Z M 108.15625 -9.933594 C 108.433594 -9.65625 108.433594 -9.65625 108.15625 -9.933594 Z M 107.878906 -9.933594 C 107.878906 -9.933594 107.878906 -9.933594 107.605469 -9.933594 C 107.605469 -9.933594 107.878906 -9.933594 107.878906 -9.933594 Z M 106.777344 -10.761719 C 106.5 -10.761719 106.226562 -11.035156 106.226562 -11.035156 C 106.226562 -11.035156 106.5 -10.761719 106.777344 -10.761719 Z M 45.523438 -9.382812 C 45.523438 -9.382812 45.800781 -9.382812 45.800781 -9.382812 C 45.800781 -9.382812 45.523438 -9.382812 45.523438 -9.382812 Z M 45.523438 -9.382812 "/></g></g></g><g fill="#fffaf7" fill-opacity="1"><g transform="translate(326.494659, 429.657393)"><g><path d="M 21.519531 -9.105469 C 32.558594 -1.105469 46.90625 1.65625 60.425781 -1.105469 C 66.769531 -2.207031 73.117188 -4.964844 78.632812 -8.828125 C 84.152344 -12.691406 88.289062 -17.65625 91.601562 -23.453125 C 97.949219 -34.210938 99.328125 -46.628906 99.878906 -58.769531 C 100.15625 -71.460938 98.222656 -84.429688 93.53125 -96.292969 C 89.394531 -107.050781 83.046875 -117.8125 73.390625 -124.710938 C 64.839844 -130.78125 54.078125 -134.089844 43.316406 -131.882812 C 33.109375 -129.675781 24.003906 -122.78125 18.484375 -113.949219 C 11.863281 -104.292969 9.105469 -92.429688 7.726562 -80.839844 C 7.449219 -78.082031 7.171875 -75.046875 6.898438 -72.011719 C 6.621094 -70.910156 8.277344 -70.355469 9.382812 -70.632812 C 6.621094 -66.492188 4.414062 -61.804688 3.585938 -57.113281 C 2.207031 -51.320312 1.65625 -45.25 2.757812 -39.179688 C 3.863281 -32.558594 5.792969 -26.761719 9.382812 -21.246094 C 12.691406 -16.554688 16.832031 -12.140625 21.519531 -9.105469 Z M 11.589844 -73.667969 C 11.589844 -73.667969 11.589844 -73.390625 11.589844 -73.390625 C 13.242188 -84.703125 15.175781 -96.566406 20.417969 -106.777344 C 25.109375 -115.882812 33.109375 -124.160156 43.042969 -126.917969 C 47.730469 -128.023438 52.148438 -127.746094 56.5625 -126.089844 C 60.976562 -124.160156 64.285156 -121.125 67.046875 -117.539062 C 70.355469 -113.675781 72.011719 -109.535156 73.667969 -104.570312 C 74.769531 -101.808594 75.324219 -98.773438 75.875 -96.015625 C 75.875 -96.015625 75.875 -96.015625 75.875 -95.742188 C 75.875 -95.464844 76.152344 -95.1875 76.152344 -94.914062 C 76.152344 -94.085938 76.425781 -93.257812 76.425781 -92.707031 C 76.703125 -91.050781 76.703125 -89.671875 76.980469 -88.289062 C 78.359375 -74.496094 77.253906 -60.976562 75.046875 -47.457031 C 73.667969 -41.386719 72.011719 -35.039062 68.976562 -29.523438 C 67.320312 -27.039062 65.667969 -25.109375 64.011719 -23.175781 C 64.011719 -23.175781 64.011719 -23.175781 63.734375 -22.902344 C 63.183594 -22.625 62.632812 -22.074219 62.078125 -21.519531 C 61.527344 -21.246094 60.976562 -20.691406 60.425781 -20.417969 C 60.148438 -20.417969 60.148438 -20.417969 60.148438 -20.140625 C 59.042969 -19.867188 57.941406 -19.3125 56.5625 -18.761719 C 56.835938 -18.761719 56.5625 -18.761719 56.5625 -18.761719 C 56.5625 -18.761719 56.285156 -18.484375 56.285156 -18.484375 C 55.734375 -18.484375 55.183594 -18.210938 54.628906 -17.933594 C 55.183594 -18.210938 55.734375 -18.210938 56.007812 -18.484375 C 55.457031 -18.210938 55.183594 -18.210938 54.90625 -18.210938 C 54.078125 -17.933594 53.25 -17.933594 52.421875 -17.65625 C 53.527344 -17.933594 52.699219 -17.65625 51.871094 -17.65625 C 51.320312 -17.65625 51.042969 -17.382812 50.492188 -17.382812 C 51.042969 -17.382812 51.59375 -17.65625 51.871094 -17.65625 C 51.59375 -17.65625 51.320312 -17.65625 51.042969 -17.65625 C 50.214844 -17.65625 49.664062 -17.65625 48.835938 -17.65625 C 48.835938 -17.65625 48.558594 -17.65625 48.558594 -17.65625 C 48.007812 -17.65625 47.730469 -17.65625 47.179688 -17.65625 C 46.351562 -17.933594 45.800781 -17.933594 44.972656 -18.210938 C 43.871094 -18.761719 42.765625 -19.039062 41.9375 -19.589844 C 41.664062 -19.589844 41.386719 -19.867188 40.835938 -20.140625 C 41.109375 -19.867188 41.386719 -19.589844 41.9375 -19.3125 C 41.386719 -19.867188 40.835938 -20.140625 40.007812 -20.417969 C 38.902344 -21.246094 37.800781 -22.074219 36.695312 -23.175781 C 36.421875 -23.175781 36.144531 -23.453125 36.144531 -23.726562 C 36.144531 -23.453125 36.421875 -23.453125 36.421875 -23.175781 C 36.144531 -23.726562 35.59375 -24.003906 35.039062 -24.554688 C 33.386719 -26.488281 32.003906 -28.417969 30.625 -30.351562 C 28.96875 -33.386719 27.589844 -36.695312 27.039062 -40.28125 C 26.210938 -44.421875 26.488281 -48.558594 27.039062 -52.421875 C 27.867188 -57.113281 29.523438 -61.25 31.730469 -65.390625 C 32.832031 -67.320312 33.660156 -69.253906 32.558594 -71.734375 C 32.003906 -73.945312 29.523438 -75.875 27.316406 -76.703125 C 22.625 -78.359375 15.175781 -78.082031 11.589844 -73.667969 Z M 11.589844 -73.667969 "/></g></g></g><g fill="#fffaf7" fill-opacity="1"><g transform="translate(429.408513, 429.657393)"><g><path d="M 99.601562 -0.828125 C 99.878906 -0.828125 99.878906 -0.550781 99.878906 -0.550781 C 100.15625 -0.550781 100.15625 -0.550781 100.15625 -0.550781 C 100.984375 -0.277344 102.085938 0 102.914062 0 C 103.191406 0 103.742188 0 104.019531 0 C 108.707031 0.277344 113.398438 -0.828125 117.261719 -3.035156 C 122.78125 -6.347656 126.367188 -11.3125 129.402344 -16.832031 C 134.917969 -26.761719 138.507812 -37.800781 140.988281 -48.835938 C 142.921875 -56.5625 144.300781 -64.285156 145.957031 -72.289062 C 147.609375 -81.117188 149.542969 -89.945312 150.09375 -99.050781 C 150.09375 -103.464844 150.09375 -107.878906 149.265625 -112.019531 C 148.714844 -116.15625 147.609375 -120.570312 145.679688 -124.160156 C 141.542969 -131.058594 132.988281 -134.644531 125.8125 -129.675781 C 118.640625 -124.988281 115.882812 -116.15625 114.503906 -107.878906 C 112.847656 -97.394531 113.398438 -86.910156 115.054688 -76.425781 C 116.433594 -65.941406 118.640625 -55.734375 121.398438 -45.523438 C 122.503906 -41.664062 123.605469 -37.800781 124.988281 -34.210938 C 125.261719 -32.832031 125.8125 -31.175781 126.367188 -29.796875 C 126.367188 -29.796875 126.367188 -29.523438 126.640625 -29.246094 C 124.710938 -25.382812 122.78125 -21.519531 120.296875 -17.933594 C 119.191406 -16.554688 118.089844 -15.175781 116.984375 -13.796875 C 116.15625 -12.96875 115.328125 -12.140625 114.226562 -11.3125 C 113.949219 -11.3125 113.121094 -11.035156 112.847656 -10.761719 C 112.570312 -10.761719 112.292969 -10.484375 112.019531 -10.484375 C 112.019531 -10.484375 111.46875 -10.207031 111.191406 -10.207031 C 110.914062 -10.207031 110.640625 -10.207031 110.363281 -9.933594 C 110.085938 -9.933594 110.085938 -9.933594 109.8125 -9.933594 C 109.535156 -9.933594 109.535156 -9.933594 109.261719 -9.933594 C 109.261719 -9.933594 108.984375 -9.933594 108.707031 -9.933594 C 108.433594 -9.933594 108.15625 -9.933594 108.15625 -9.933594 C 107.878906 -10.207031 107.878906 -10.207031 107.878906 -10.207031 C 107.605469 -10.207031 107.605469 -10.207031 107.328125 -10.484375 C 107.050781 -10.484375 107.050781 -10.484375 107.050781 -10.761719 C 106.777344 -11.035156 106.5 -11.3125 106.226562 -11.589844 C 105.671875 -12.140625 105.398438 -12.691406 104.84375 -13.242188 C 104.570312 -13.519531 104.570312 -14.070312 104.292969 -14.347656 C 102.914062 -17.382812 101.808594 -20.417969 100.984375 -23.453125 C 101.257812 -22.902344 101.257812 -22.074219 101.535156 -21.519531 C 100.429688 -26.488281 99.050781 -31.175781 98.222656 -36.144531 C 97.394531 -40.558594 96.292969 -44.972656 95.464844 -49.386719 C 91.050781 -73.667969 89.117188 -98.5 89.117188 -123.054688 C 89.394531 -128.847656 81.945312 -132.160156 76.980469 -131.882812 C 72.011719 -131.882812 64.839844 -129.125 64.5625 -123.054688 C 64.5625 -120.296875 64.5625 -117.8125 64.839844 -115.054688 C 64.5625 -113.398438 64.5625 -112.019531 64.285156 -110.640625 C 64.011719 -105.121094 63.734375 -99.328125 63.460938 -93.53125 C 62.90625 -82.222656 62.078125 -70.910156 61.25 -59.320312 C 60.425781 -48.558594 59.597656 -37.523438 57.113281 -26.761719 C 56.285156 -22.347656 55.183594 -17.382812 52.421875 -13.519531 C 51.871094 -12.691406 51.320312 -11.589844 50.492188 -11.035156 C 49.386719 -10.207031 49.113281 -10.207031 48.007812 -9.65625 C 47.730469 -9.65625 47.730469 -9.382812 47.457031 -9.382812 C 47.179688 -9.382812 46.628906 -9.382812 46.351562 -9.382812 C 46.078125 -9.382812 45.800781 -9.382812 45.523438 -9.382812 C 45.25 -9.382812 44.972656 -9.382812 44.972656 -9.382812 C 44.972656 -9.382812 44.695312 -9.382812 44.421875 -9.65625 C 43.871094 -9.65625 43.316406 -9.933594 43.042969 -10.207031 C 42.765625 -10.207031 42.765625 -10.207031 42.765625 -10.207031 C 42.765625 -10.207031 42.488281 -10.484375 42.488281 -10.484375 C 41.9375 -10.761719 41.386719 -11.035156 40.835938 -11.3125 C 40.835938 -11.589844 40.558594 -11.863281 40.28125 -11.863281 C 40.28125 -11.863281 40.007812 -12.140625 40.007812 -12.414062 C 39.730469 -12.691406 39.453125 -12.691406 39.179688 -12.96875 C 38.628906 -14.070312 37.800781 -14.898438 37.246094 -15.726562 C 37.523438 -15.449219 36.695312 -16.832031 36.695312 -17.105469 C 36.421875 -17.65625 36.144531 -18.210938 35.867188 -19.039062 C 35.316406 -20.140625 34.765625 -21.519531 34.488281 -22.902344 C 33.660156 -25.382812 32.832031 -27.867188 32.558594 -30.351562 C 32.003906 -32.558594 31.730469 -34.765625 31.175781 -36.695312 C 31.453125 -36.144531 31.453125 -35.316406 31.730469 -34.765625 C 29.523438 -45.800781 28.96875 -57.390625 28.695312 -68.703125 C 28.417969 -80.289062 29.246094 -91.878906 30.351562 -103.464844 C 30.902344 -110.085938 31.453125 -116.710938 32.28125 -123.332031 C 32.558594 -125.8125 30.351562 -128.296875 28.695312 -129.675781 C 26.210938 -131.332031 22.625 -132.160156 19.867188 -132.160156 C 14.347656 -131.882812 8.277344 -129.402344 7.726562 -123.332031 C 5.792969 -104.570312 3.863281 -85.808594 4.414062 -67.046875 C 4.691406 -57.113281 6.070312 -47.179688 8.277344 -37.523438 C 10.207031 -28.695312 13.242188 -19.867188 18.761719 -12.691406 C 24.832031 -4.964844 33.109375 0 43.042969 0.277344 C 47.457031 0.277344 52.148438 -0.828125 55.734375 -3.585938 C 58.769531 -5.792969 61.25 -9.382812 62.90625 -13.242188 C 64.285156 -16.832031 65.113281 -20.96875 65.941406 -24.554688 C 66.769531 -28.96875 67.597656 -33.109375 68.148438 -37.246094 C 68.976562 -43.871094 69.253906 -50.765625 69.527344 -57.664062 C 70.910156 -49.113281 72.289062 -40.558594 74.496094 -32.28125 C 75.324219 -30.074219 75.875 -27.867188 76.703125 -25.933594 C 77.53125 -22.902344 78.632812 -20.417969 80.289062 -17.933594 C 83.046875 -13.519531 85.53125 -9.65625 89.394531 -6.347656 C 91.324219 -4.691406 93.257812 -3.3125 95.464844 -2.207031 C 96.84375 -1.65625 98.222656 -1.105469 99.601562 -0.828125 Z M 124.988281 -55.457031 C 123.054688 -63.734375 121.398438 -71.734375 120.296875 -80.011719 C 119.46875 -88.015625 118.640625 -96.292969 119.46875 -104.570312 C 119.746094 -110.914062 121.398438 -117.8125 125.261719 -123.054688 C 126.917969 -125.261719 129.675781 -128.296875 132.4375 -128.023438 C 135.472656 -128.023438 137.679688 -125.539062 139.058594 -123.332031 C 140.714844 -120.570312 141.542969 -117.539062 142.367188 -114.503906 C 145.402344 -100.707031 142.09375 -86.636719 139.332031 -73.117188 C 137.125 -61.804688 134.367188 -50.492188 130.503906 -39.730469 C 130.230469 -38.902344 129.953125 -38.074219 129.675781 -37.523438 C 128.023438 -43.316406 126.367188 -49.386719 124.988281 -55.457031 Z M 108.433594 -9.933594 C 108.707031 -9.65625 108.707031 -9.65625 108.433594 -9.933594 Z M 108.15625 -9.933594 C 108.15625 -9.933594 108.15625 -9.933594 107.878906 -9.933594 C 107.878906 -9.933594 108.15625 -9.933594 108.15625 -9.933594 Z M 107.050781 -10.761719 C 106.777344 -10.761719 106.5 -11.035156 106.5 -11.035156 C 106.5 -11.035156 106.777344 -10.761719 107.050781 -10.761719 Z M 45.800781 -9.382812 C 45.800781 -9.382812 46.078125 -9.382812 46.078125 -9.382812 C 46.078125 -9.382812 45.800781 -9.382812 45.800781 -9.382812 Z M 45.800781 -9.382812 "/></g></g></g><path fill="#f65e32" d="M 656.539062 187.472656 C 655.96875 184.246094 655.15625 181.078125 654.113281 177.976562 C 653.066406 174.871094 651.792969 171.859375 650.296875 168.945312 C 648.800781 166.03125 647.097656 163.242188 645.1875 160.582031 C 643.273438 157.921875 641.175781 155.417969 638.886719 153.070312 C 636.730469 150.75 634.273438 148.800781 631.519531 147.226562 C 628.722656 145.730469 625.621094 144.914062 622.652344 143.792969 C 618.03125 141.957031 613.660156 139.644531 609.542969 136.855469 C 606.621094 134.933594 603.679688 132.800781 601.886719 129.796875 C 600.09375 126.792969 599.683594 122.734375 601.796875 119.902344 C 603.234375 118.210938 605.027344 117.09375 607.179688 116.546875 C 614.582031 114.28125 622.847656 116.117188 629.382812 120.269531 C 635.921875 124.417969 640.914062 130.6875 644.734375 137.425781 C 653.035156 152.078125 656.269531 169.15625 656.46875 185.992188 " fill-opacity="1" fill-rule="nonzero"/><path fill="#f65e32" d="M 657.617188 187.175781 C 655.085938 173.636719 648.550781 160.726562 638.566406 151.171875 C 632.691406 145.566406 625.753906 144.292969 618.671875 140.851562 C 612.546875 137.867188 599.082031 131.257812 601.746094 122.5 C 603.242188 117.5625 610 116.636719 614.324219 116.691406 C 619.074219 116.824219 623.5 118.085938 627.601562 120.484375 C 634.628906 124.527344 639.828125 131.042969 643.765625 137.972656 C 652.03125 152.550781 655.0625 169.351562 655.347656 185.972656 C 655.347656 186.121094 655.375 186.265625 655.433594 186.402344 C 655.488281 186.539062 655.570312 186.660156 655.675781 186.765625 C 655.78125 186.871094 655.902344 186.953125 656.039062 187.007812 C 656.175781 187.066406 656.320312 187.09375 656.46875 187.09375 C 656.617188 187.09375 656.761719 187.066406 656.898438 187.007812 C 657.035156 186.953125 657.15625 186.871094 657.261719 186.765625 C 657.367188 186.660156 657.445312 186.539062 657.503906 186.402344 C 657.5625 186.265625 657.589844 186.121094 657.589844 185.972656 C 657.347656 171.828125 655.160156 157.652344 649.519531 144.597656 C 644.554688 133.070312 636.683594 121.316406 624.527344 116.53125 C 616.914062 113.535156 598.957031 112.484375 599.242188 124.769531 C 599.371094 130.039062 603.304688 133.867188 607.3125 136.710938 C 613.144531 140.75 619.417969 143.910156 626.140625 146.1875 C 642.636719 152.039062 652.417969 171.503906 655.457031 187.765625 C 655.722656 189.183594 657.886719 188.582031 657.617188 187.175781 Z M 657.617188 187.175781 " fill-opacity="1" fill-rule="nonzero"/><path fill="#f65e32" d="M 662.824219 168.015625 C 662.894531 152.867188 651.644531 138.332031 648.855469 123.441406 C 648.359375 121.519531 648.425781 119.613281 649.054688 117.730469 C 650.558594 114.144531 655.445312 113.121094 658.96875 114.683594 C 662.492188 116.242188 664.824219 119.648438 666.546875 123.09375 C 667.382812 124.804688 668.121094 126.5625 668.753906 128.363281 C 669.386719 130.164062 669.914062 131.996094 670.335938 133.855469 C 670.753906 135.71875 671.0625 137.597656 671.261719 139.496094 C 671.464844 141.394531 671.550781 143.296875 671.527344 145.203125 C 671.503906 147.113281 671.371094 149.011719 671.125 150.90625 C 670.882812 152.796875 670.527344 154.671875 670.0625 156.523438 C 669.597656 158.371094 669.027344 160.191406 668.351562 161.976562 C 667.675781 163.757812 666.894531 165.5 666.015625 167.191406 C 665.722656 167.921875 665.234375 168.476562 664.546875 168.859375 C 663.855469 169.15625 662.84375 168.769531 662.824219 168.015625 " fill-opacity="1" fill-rule="nonzero"/><path fill="#f65e32" d="M 663.945312 168.015625 C 663.792969 159.660156 660.835938 151.949219 657.578125 144.375 C 655.257812 138.933594 643.773438 117.535156 654.066406 115.246094 C 664.359375 112.960938 668.804688 130.316406 669.878906 137.410156 C 670.703125 142.863281 670.59375 148.292969 669.546875 153.707031 C 669.140625 155.890625 668.578125 158.027344 667.855469 160.128906 C 667.40625 161.425781 666.957031 162.71875 666.347656 163.972656 C 666.394531 163.875 664.257812 168.402344 663.792969 167.441406 C 663.15625 166.152344 661.230469 167.28125 661.855469 168.582031 C 663.855469 172.6875 667.074219 167.683594 667.96875 165.773438 C 670.691406 159.957031 672.226562 153.839844 672.578125 147.421875 C 673.152344 137.105469 670.785156 121.613281 661.714844 115.003906 C 658.457031 112.628906 653.804688 111.976562 650.34375 114.421875 C 646.355469 117.273438 647.332031 122.402344 648.363281 126.527344 C 651.933594 140.664062 661.433594 153.070312 661.703125 168.015625 C 661.703125 168.164062 661.734375 168.308594 661.789062 168.445312 C 661.847656 168.582031 661.925781 168.703125 662.03125 168.808594 C 662.136719 168.914062 662.257812 168.996094 662.394531 169.050781 C 662.53125 169.109375 662.675781 169.136719 662.824219 169.136719 C 662.972656 169.136719 663.117188 169.109375 663.253906 169.050781 C 663.390625 168.996094 663.511719 168.914062 663.617188 168.808594 C 663.722656 168.703125 663.804688 168.582031 663.859375 168.445312 C 663.917969 168.308594 663.945312 168.164062 663.945312 168.015625 Z M 663.945312 168.015625 " fill-opacity="1" fill-rule="nonzero"/><path fill="#f65e32" d="M 662.816406 186.941406 C 662.90625 184.773438 664.277344 182.890625 665.628906 181.195312 C 671.007812 174.445312 676.96875 168.253906 683.515625 162.628906 C 686.207031 160.351562 688.957031 158.144531 692.238281 156.988281 C 695.519531 155.832031 699.410156 155.894531 702.234375 157.949219 C 703.53125 158.980469 704.609375 160.199219 705.472656 161.617188 C 706.113281 162.519531 706.5625 163.507812 706.824219 164.582031 C 707.300781 167.058594 705.667969 169.550781 703.527344 170.859375 C 701.382812 172.167969 698.8125 172.5625 696.355469 172.929688 L 681.265625 175.144531 C 677.679688 175.683594 673.941406 176.230469 670.625 177.832031 C 667.308594 179.4375 663.675781 183.402344 662.816406 186.96875 " fill-opacity="1" fill-rule="nonzero"/><path fill="#f65e32" d="M 663.890625 187.28125 C 664.625 182.585938 669.082031 178.675781 672.167969 175.269531 C 675.25 171.863281 678.441406 168.652344 681.867188 165.597656 C 685.613281 162.214844 689.730469 158.296875 694.929688 157.570312 C 695.632812 157.453125 696.339844 157.414062 697.054688 157.460938 C 697.765625 157.511719 698.464844 157.640625 699.144531 157.851562 C 699.828125 158.066406 700.476562 158.355469 701.085938 158.722656 C 701.699219 159.085938 702.261719 159.519531 702.773438 160.019531 C 705.464844 162.773438 706.78125 167.378906 702.980469 169.945312 C 699.394531 172.363281 693.496094 172.273438 689.34375 172.882812 C 684.753906 173.558594 680.054688 174.023438 675.527344 175.054688 C 669.171875 176.460938 663.792969 180.210938 661.730469 186.636719 C 661.300781 188.019531 663.460938 188.609375 663.890625 187.238281 C 666.097656 180.21875 672.5625 177.691406 679.222656 176.585938 C 685.496094 175.546875 691.871094 174.917969 698.136719 173.789062 C 706.457031 172.285156 711.058594 165.875 704.773438 158.835938 C 698.175781 151.441406 688.777344 156.648438 682.699219 161.832031 C 678.214844 165.6875 674.003906 169.824219 670.070312 174.238281 C 666.941406 177.734375 662.519531 181.796875 661.757812 186.636719 C 661.542969 188.054688 663.695312 188.664062 663.917969 187.238281 Z M 663.890625 187.28125 " fill-opacity="1" fill-rule="nonzero"/><path fill="#f65e32" d="M 679.660156 152.605469 L 681.515625 142.207031 C 682.1875 138.429688 682.890625 134.59375 684.664062 131.1875 C 685.765625 129.222656 687.03125 127.367188 688.464844 125.628906 C 689.65625 124.097656 691.253906 122.394531 693.164062 122.722656 C 694.613281 122.984375 695.582031 124.355469 696.203125 125.691406 C 696.746094 126.90625 697.136719 128.167969 697.375 129.480469 C 697.609375 130.789062 697.683594 132.109375 697.597656 133.4375 C 697.507812 134.765625 697.261719 136.0625 696.855469 137.332031 C 696.449219 138.601562 695.898438 139.800781 695.199219 140.933594 C 692.007812 145.972656 684.84375 149.671875 679.660156 152.585938 " fill-opacity="1" fill-rule="nonzero"/><path fill="#f65e32" d="M 680.746094 152.902344 C 681.695312 147.574219 682.367188 142.089844 683.757812 136.855469 C 684.4375 134.207031 685.527344 131.738281 687.023438 129.449219 C 687.648438 128.320312 688.414062 127.300781 689.316406 126.382812 C 689.914062 125.1875 690.925781 124.851562 692.355469 125.378906 C 694.347656 124.558594 695.445312 125.207031 695.65625 127.324219 C 700.09375 139.875 688.117188 146.535156 679.097656 151.636719 C 678.96875 151.710938 678.859375 151.808594 678.769531 151.925781 C 678.679688 152.046875 678.613281 152.175781 678.578125 152.320312 C 678.539062 152.464844 678.53125 152.609375 678.550781 152.757812 C 678.570312 152.902344 678.617188 153.042969 678.691406 153.171875 C 678.769531 153.296875 678.863281 153.40625 678.984375 153.496094 C 679.101562 153.585938 679.230469 153.652344 679.375 153.691406 C 679.519531 153.726562 679.664062 153.734375 679.8125 153.714844 C 679.960938 153.695312 680.097656 153.648438 680.226562 153.574219 C 685.875 150.382812 692.5625 147.15625 696.15625 141.480469 C 699.296875 136.546875 700.21875 127.734375 695.871094 123.128906 C 691.84375 118.859375 687.675781 124.617188 685.46875 127.761719 C 680.558594 134.820312 680.046875 144.078125 678.578125 152.320312 C 678.324219 153.726562 680.484375 154.328125 680.746094 152.910156 Z M 680.746094 152.902344 " fill-opacity="1" fill-rule="nonzero"/><path fill="#f65e32" d="M 673.832031 188.117188 L 675.832031 186.914062 C 677.761719 185.605469 679.851562 184.65625 682.109375 184.074219 C 684.367188 183.617188 686.941406 184.074219 688.5 185.75 C 689.34375 186.644531 689.800781 188.144531 689.046875 189.136719 C 688.753906 189.46875 688.394531 189.703125 687.976562 189.847656 C 687.5625 189.992188 687.132812 190.027344 686.699219 189.953125 C 685.839844 189.792969 685.015625 189.53125 684.222656 189.164062 C 682.445312 188.488281 680.609375 188.105469 678.707031 188.011719 C 676.808594 187.921875 674.941406 188.128906 673.109375 188.636719 " fill-opacity="1" fill-rule="nonzero"/><g clip-path="url(#e1c17283b9)"><path fill="#f65e32" d="M 674.398438 189.074219 C 676.59375 187.757812 678.882812 186.0625 681.4375 185.390625 C 682.691406 185 683.964844 184.929688 685.253906 185.183594 C 686.378906 185.414062 687.277344 185.992188 687.945312 186.925781 C 687.417969 188.484375 686.664062 189.023438 685.695312 188.546875 C 683.742188 188.332031 681.839844 187.191406 679.785156 186.988281 C 677.414062 186.765625 675.074219 186.957031 672.765625 187.5625 C 671.367188 187.902344 671.960938 190.0625 673.359375 189.722656 C 676.328125 188.9375 679.292969 188.9375 682.261719 189.722656 C 683.972656 190.195312 685.695312 191.273438 687.53125 191.058594 C 687.785156 191.03125 688.027344 190.980469 688.265625 190.898438 C 688.503906 190.816406 688.730469 190.710938 688.945312 190.574219 C 689.15625 190.441406 689.351562 190.285156 689.53125 190.105469 C 689.707031 189.925781 689.859375 189.726562 689.992188 189.511719 C 690.121094 189.296875 690.226562 189.070312 690.304688 188.828125 C 690.378906 188.589844 690.429688 188.34375 690.449219 188.09375 C 690.46875 187.84375 690.460938 187.59375 690.421875 187.34375 C 690.382812 187.09375 690.316406 186.851562 690.222656 186.621094 C 689.324219 184 686.3125 182.816406 683.757812 182.78125 C 679.867188 182.78125 676.378906 185.238281 673.199219 187.148438 C 673.070312 187.226562 672.960938 187.328125 672.875 187.453125 C 672.785156 187.574219 672.726562 187.707031 672.691406 187.855469 C 672.65625 188 672.652344 188.148438 672.679688 188.296875 C 672.703125 188.445312 672.753906 188.585938 672.835938 188.710938 C 672.914062 188.839844 673.015625 188.949219 673.136719 189.035156 C 673.261719 189.125 673.394531 189.183594 673.542969 189.21875 C 673.6875 189.253906 673.835938 189.257812 673.984375 189.230469 C 674.132812 189.207031 674.269531 189.15625 674.398438 189.074219 Z M 674.398438 189.074219 " fill-opacity="1" fill-rule="nonzero"/></g></svg>